<svg xmlns="http://www.w3.org/2000/svg" xmlns:xlink="http://www.w3.org/1999/xlink" preserveAspectRatio="xMidYMid" width="36" height="36" viewBox="0 0 36 36">
  <defs>
    <style>
      .cls-1 {
        fill: #fff;
        fill-rule: evenodd;
      }
    </style>
  </defs>
  <path d="M31.502,36.007 L11.252,36.007 C8.771,36.007 6.753,33.988 6.753,31.507 L6.753,28.132 L6.753,9.008 L1.128,9.008 C0.507,9.008 0.002,8.502 0.002,7.882 L0.002,4.507 C0.002,2.025 2.021,0.007 4.503,0.007 L27.003,0.007 C29.484,0.007 31.502,2.025 31.502,4.507 L31.502,27.007 L34.877,27.007 C35.500,27.007 36.002,27.509 36.002,28.132 L36.002,31.507 C36.002,33.988 33.985,36.007 31.502,36.007 ZM6.753,4.507 C6.753,3.266 5.743,2.256 4.503,2.256 C3.261,2.256 2.252,3.266 2.252,4.507 L2.252,6.757 L6.753,6.757 L6.753,4.507 ZM29.252,4.507 C29.252,3.266 28.243,2.256 27.003,2.256 L8.376,2.256 C8.764,2.921 9.002,3.683 9.002,4.507 L9.002,7.882 L9.002,28.132 L9.002,31.507 C9.002,32.748 10.012,33.757 11.252,33.757 C12.493,33.757 13.502,32.748 13.502,31.507 L13.502,28.132 C13.502,27.509 14.006,27.007 14.627,27.007 L29.252,27.007 L29.252,4.507 ZM33.752,29.257 L15.753,29.257 L15.753,31.507 C15.753,32.331 15.514,33.093 15.127,33.757 L31.502,33.757 C32.743,33.757 33.752,32.748 33.752,31.507 L33.752,29.257 ZM11.252,21.383 C11.252,20.760 11.756,20.257 12.377,20.257 L19.128,20.257 C19.750,20.257 20.252,20.760 20.252,21.383 C20.252,22.004 19.750,22.507 19.128,22.507 L12.377,22.507 C11.756,22.507 11.252,22.004 11.252,21.383 ZM11.252,16.882 C11.252,16.260 11.756,15.757 12.377,15.757 L25.877,15.757 C26.499,15.757 27.003,16.260 27.003,16.882 C27.003,17.503 26.499,18.007 25.877,18.007 L12.377,18.007 C11.756,18.007 11.252,17.503 11.252,16.882 ZM25.877,13.506 L12.377,13.506 C11.756,13.506 11.252,13.003 11.252,12.382 C11.252,11.761 11.756,11.257 12.377,11.257 L25.877,11.257 C26.499,11.257 27.003,11.761 27.003,12.382 C27.003,13.003 26.499,13.506 25.877,13.506 ZM25.877,9.008 L12.377,9.008 C11.756,9.008 11.252,8.502 11.252,7.882 C11.252,7.261 11.756,6.757 12.377,6.757 L25.877,6.757 C26.499,6.757 27.003,7.261 27.003,7.882 C27.003,8.502 26.499,9.008 25.877,9.008 Z" class="cls-1"/>
</svg>
