<svg xmlns="http://www.w3.org/2000/svg" xmlns:xlink="http://www.w3.org/1999/xlink" preserveAspectRatio="xMidYMid" width="36" height="31.5" viewBox="0 0 36 31.5">
  <defs>
    <style>
      .cls-1 {
        fill: #fff;
        fill-rule: evenodd;
      }
    </style>
  </defs>
  <path d="M33.190,31.507 L2.815,31.507 C1.265,31.507 0.003,30.246 0.003,28.695 L0.003,2.820 C0.003,1.269 1.265,0.008 2.815,0.008 L33.190,0.008 C34.742,0.008 36.003,1.269 36.003,2.820 L36.003,28.695 C36.003,30.246 34.742,31.507 33.190,31.507 ZM2.815,2.256 C2.504,2.256 2.253,2.509 2.253,2.820 L2.253,28.695 C2.253,29.004 2.504,29.257 2.815,29.257 L33.190,29.257 C33.499,29.257 33.752,29.004 33.752,28.695 L33.752,2.820 C33.752,2.509 33.499,2.256 33.190,2.256 L2.815,2.256 ZM34.877,9.007 L1.128,9.007 C0.507,9.007 0.003,8.503 0.003,7.882 C0.003,7.261 0.507,6.757 1.128,6.757 L34.877,6.757 C35.500,6.757 36.003,7.261 36.003,7.882 C36.003,8.503 35.500,9.007 34.877,9.007 ZM4.503,5.632 C4.211,5.632 3.917,5.508 3.704,5.306 C3.501,5.092 3.378,4.799 3.378,4.507 C3.378,4.215 3.501,3.922 3.704,3.709 C4.131,3.292 4.885,3.292 5.302,3.709 C5.504,3.922 5.628,4.215 5.628,4.507 C5.628,4.799 5.504,5.092 5.302,5.306 C5.088,5.508 4.795,5.632 4.503,5.632 ZM7.877,5.632 C7.585,5.632 7.292,5.508 7.079,5.306 C6.877,5.092 6.753,4.799 6.753,4.507 C6.753,4.215 6.877,3.922 7.079,3.709 C7.506,3.292 8.249,3.292 8.677,3.709 C8.879,3.922 9.002,4.215 9.002,4.507 C9.002,4.799 8.879,5.092 8.677,5.306 C8.463,5.508 8.170,5.632 7.877,5.632 ZM24.753,24.757 C24.465,24.757 24.176,24.647 23.957,24.428 C23.518,23.988 23.518,23.276 23.957,22.837 L27.264,19.530 C27.481,19.311 27.481,18.954 27.264,18.735 L23.957,15.429 C23.518,14.989 23.518,14.277 23.957,13.838 C24.397,13.398 25.108,13.398 25.548,13.838 L28.855,17.144 C29.951,18.241 29.951,20.025 28.855,21.121 L25.548,24.428 C25.329,24.647 25.041,24.757 24.753,24.757 ZM11.252,24.757 C10.964,24.757 10.677,24.647 10.457,24.428 L7.151,21.121 C6.055,20.024 6.055,18.241 7.151,17.144 L10.458,13.838 C10.898,13.398 11.609,13.398 12.049,13.838 C12.489,14.277 12.489,14.989 12.049,15.429 L8.743,18.735 C8.524,18.954 8.524,19.311 8.743,19.530 L12.049,22.837 C12.489,23.276 12.489,23.988 12.049,24.428 C11.829,24.647 11.540,24.757 11.252,24.757 ZM15.753,25.881 C15.613,25.881 15.472,25.857 15.335,25.802 C14.758,25.572 14.478,24.917 14.709,24.340 L19.209,13.090 C19.439,12.513 20.098,12.235 20.671,12.463 C21.248,12.695 21.529,13.349 21.299,13.926 L16.799,25.176 C16.621,25.616 16.198,25.881 15.753,25.881 Z" class="cls-1"/>
</svg>
