<svg xmlns="http://www.w3.org/2000/svg" xmlns:xlink="http://www.w3.org/1999/xlink" preserveAspectRatio="xMidYMid" width="28" height="28" viewBox="0 0 28 28">
  <defs>
    <style>
      .cls-1 {
        fill: #fff;
        fill-rule: evenodd;
      }
    </style>
  </defs>
  <path d="M26.000,28.000 L10.000,28.000 C8.895,28.000 8.000,27.104 8.000,26.000 L8.000,20.000 L2.000,20.000 C0.895,20.000 -0.000,19.104 -0.000,18.000 L-0.000,2.000 C-0.000,0.895 0.895,-0.000 2.000,-0.000 L18.000,-0.000 C19.105,-0.000 20.000,0.895 20.000,2.000 L20.000,8.000 L26.000,8.000 C27.105,8.000 28.000,8.895 28.000,10.000 L28.000,26.000 C28.000,27.104 27.105,28.000 26.000,28.000 ZM17.000,4.000 C17.000,3.447 16.552,3.000 16.000,3.000 L4.000,3.000 C3.448,3.000 3.000,3.447 3.000,4.000 L3.000,16.000 C3.000,16.552 3.448,17.000 4.000,17.000 L8.000,17.000 L8.000,10.000 C8.000,8.895 8.895,8.000 10.000,8.000 L17.000,8.000 L17.000,4.000 ZM25.000,12.000 C25.000,11.448 24.552,11.000 24.000,11.000 L12.000,11.000 C11.448,11.000 11.000,11.448 11.000,12.000 L11.000,24.000 C11.000,24.552 11.448,25.000 12.000,25.000 L24.000,25.000 C24.552,25.000 25.000,24.552 25.000,24.000 L25.000,12.000 Z" class="cls-1"/>
</svg>
