<svg xmlns="http://www.w3.org/2000/svg" xmlns:xlink="http://www.w3.org/1999/xlink" preserveAspectRatio="xMidYMid" width="36" height="36" viewBox="0 0 36 36">
  <defs>
    <style>
      .cls-1 {
        fill: #fff;
        fill-rule: evenodd;
      }
    </style>
  </defs>
  <path d="M34.877,36.007 L1.128,36.007 C0.507,36.007 0.003,35.504 0.003,34.882 C0.003,34.260 0.507,33.757 1.128,33.757 L1.128,23.633 C1.128,21.772 2.642,20.257 4.503,20.257 C6.363,20.257 7.877,21.772 7.877,23.633 L7.877,33.757 L10.127,33.757 L10.127,13.507 C10.127,11.646 11.642,10.131 13.503,10.131 C15.363,10.131 16.878,11.646 16.878,13.507 L16.878,33.757 L19.128,33.757 L19.128,3.382 C19.128,1.522 20.642,0.007 22.503,0.007 C24.363,0.007 25.878,1.522 25.878,3.382 L25.878,33.757 L28.128,33.757 L28.128,23.633 C28.128,21.772 29.642,20.257 31.502,20.257 C33.364,20.257 34.877,21.772 34.877,23.633 L34.877,33.757 C35.500,33.757 36.003,34.260 36.003,34.882 C36.003,35.504 35.500,36.007 34.877,36.007 ZM5.628,23.633 C5.628,23.012 5.122,22.506 4.503,22.506 C3.883,22.506 3.378,23.012 3.378,23.633 L3.378,33.757 L5.628,33.757 L5.628,23.633 ZM14.628,13.507 C14.628,12.887 14.123,12.382 13.503,12.382 C12.883,12.382 12.377,12.887 12.377,13.507 L12.377,33.757 L14.628,33.757 L14.628,13.507 ZM23.628,3.382 C23.628,2.762 23.124,2.257 22.503,2.257 C21.882,2.257 21.378,2.762 21.378,3.382 L21.378,33.757 L23.628,33.757 L23.628,3.382 ZM32.627,23.633 C32.627,23.012 32.124,22.506 31.502,22.506 C30.882,22.506 30.377,23.012 30.377,23.633 L30.377,33.757 L32.627,33.757 L32.627,23.633 Z" class="cls-1"/>
</svg>
