<?xml version="1.0" encoding="utf-8"?>
<!-- Generator: Adobe Illustrator 19.2.1, SVG Export Plug-In . SVG Version: 6.00 Build 0)  -->
<svg version="1.1" id="Слой_1" xmlns="http://www.w3.org/2000/svg" xmlns:xlink="http://www.w3.org/1999/xlink" x="0px" y="0px"
	 viewBox="0 0 39 39" style="enable-background:new 0 0 39 39;" xml:space="preserve">
<style type="text/css">
	.st0{fill:#8E7474;}
	.st1{fill:#494343;}
</style>
<title>rounded</title>
<desc>Created with Sketch.</desc>
<g id="Page-1">
	<g id="rounded" transform="translate(1.000000, 1.000000)">
		<g id="Rectangle-path">
			<path class="st0" d="M28.5,38h-20C3.3,38-1,33.7-1,28.5v-20C-1,3.3,3.3-1,8.5-1h20C33.7-1,38,3.3,38,8.5v20
				C38,33.7,33.7,38,28.5,38z M8.5,2C4.9,2,2,4.9,2,8.5v20C2,32.1,4.9,35,8.5,35h20c3.6,0,6.5-2.9,6.5-6.5v-20C35,4.9,32.1,2,28.5,2
				H8.5z"/>
		</g>
		<g id="Shape">
			<path class="st1" d="M27,18.3h-3.3v-3.1c0-0.6,0.5-1.1,1-1.1h3.1l1-3.2h-4.6c-2.3,0-4.1,1.9-4.1,4.2v3.1H18v3.2h2.1V35h3.6V21.5
				h2.6L27,18.3z"/>
		</g>
	</g>
</g>
</svg>
