<svg xmlns="http://www.w3.org/2000/svg" xmlns:xlink="http://www.w3.org/1999/xlink" preserveAspectRatio="xMidYMid" width="36" height="36" viewBox="0 0 36 36">
  <defs>
    <style>
      .cls-1 {
        fill: #fff;
        fill-rule: evenodd;
      }
    </style>
  </defs>
  <path d="M31.502,36.008 C31.245,36.008 30.995,35.985 30.749,35.944 C30.634,35.985 30.508,36.008 30.377,36.008 L4.503,36.008 C2.021,36.008 0.002,33.989 0.002,31.507 L0.002,2.817 C0.002,1.269 1.263,0.007 2.812,0.007 L26.442,0.007 C27.991,0.007 29.252,1.269 29.252,2.817 L29.252,31.507 C29.252,32.748 30.262,33.757 31.502,33.757 C32.743,33.757 33.752,32.748 33.752,31.507 L33.752,13.507 C33.752,12.886 34.256,12.381 34.877,12.381 C35.500,12.381 36.002,12.886 36.002,13.507 L36.002,31.507 C36.002,33.989 33.985,36.008 31.502,36.008 ZM27.003,31.507 L27.003,2.817 C27.003,2.508 26.750,2.257 26.442,2.257 L2.812,2.257 C2.503,2.257 2.252,2.508 2.252,2.817 L2.252,31.507 C2.252,32.748 3.261,33.757 4.503,33.757 L27.606,33.757 C27.222,33.094 27.003,32.326 27.003,31.507 ZM7.878,9.006 L21.378,9.006 C21.999,9.006 22.503,9.511 22.503,10.132 C22.503,10.753 21.999,11.257 21.378,11.257 L7.878,11.257 C7.256,11.257 6.753,10.753 6.753,10.132 C6.753,9.511 7.256,9.006 7.878,9.006 ZM7.878,13.507 L21.378,13.507 C21.999,13.507 22.503,14.011 22.503,14.632 C22.503,15.253 21.999,15.757 21.378,15.757 L7.878,15.757 C7.256,15.757 6.753,15.253 6.753,14.632 C6.753,14.011 7.256,13.507 7.878,13.507 ZM7.878,18.007 L21.378,18.007 C21.999,18.007 22.503,18.511 22.503,19.132 C22.503,19.754 21.999,20.257 21.378,20.257 L7.878,20.257 C7.256,20.257 6.753,19.754 6.753,19.132 C6.753,18.511 7.256,18.007 7.878,18.007 ZM7.878,22.508 L14.627,22.508 C15.248,22.508 15.753,23.010 15.753,23.632 C15.753,24.254 15.248,24.757 14.627,24.757 L7.878,24.757 C7.256,24.757 6.753,24.254 6.753,23.632 C6.753,23.010 7.256,22.508 7.878,22.508 ZM31.502,31.507 C30.880,31.507 30.377,31.003 30.377,30.381 L30.377,11.773 C30.377,11.151 30.880,10.648 31.502,10.648 C32.125,10.648 32.627,11.151 32.627,11.773 L32.627,30.381 C32.627,31.003 32.125,31.507 31.502,31.507 Z" class="cls-1"/>
</svg>
