<?xml version="1.0" encoding="utf-8"?>
<!-- Generator: Adobe Illustrator 19.2.1, SVG Export Plug-In . SVG Version: 6.00 Build 0)  -->
<svg version="1.1" id="Слой_1" xmlns="http://www.w3.org/2000/svg" xmlns:xlink="http://www.w3.org/1999/xlink" x="0px" y="0px"
	 viewBox="0 0 39 39" style="enable-background:new 0 0 39 39;" xml:space="preserve">
<style type="text/css">
	.st0{fill:#856B6B;}
	.st1{fill:#8E7474;}
</style>
<title>rounded</title>
<desc>Created with Sketch.</desc>
<g id="Page-1">
	<g id="rounded" transform="translate(1.000000, 1.000000)">
		<g id="Shape">
			<path class="st0" d="M26,13c-1.1,0-2-0.9-2-2c0-1.1,0.9-2,2-2s2,0.9,2,2C28,12.1,27.1,13,26,13z M17,28c-4.4,0-8-3.6-8-8
				s3.6-8,8-8s8,3.6,8,8S21.4,28,17,28z M17,15c-2.8,0-5,2.2-5,5s2.2,5,5,5s5-2.2,5-5S19.8,15,17,15z"/>
		</g>
		<g id="Rectangle-path">
			<path class="st1" d="M28.5,38h-20C3.3,38-1,33.7-1,28.5v-20C-1,3.3,3.3-1,8.5-1h20C33.7-1,38,3.3,38,8.5v20
				C38,33.7,33.7,38,28.5,38z M8.5,2C4.9,2,2,4.9,2,8.5v20C2,32.1,4.9,35,8.5,35h20c3.6,0,6.5-2.9,6.5-6.5v-20C35,4.9,32.1,2,28.5,2
				H8.5z"/>
		</g>
	</g>
</g>
</svg>
