<svg xmlns="http://www.w3.org/2000/svg" xmlns:xlink="http://www.w3.org/1999/xlink" preserveAspectRatio="xMidYMid" width="36" height="36" viewBox="0 0 36 36">
  <defs>
    <style>
      .cls-1 {
        fill: #fff;
        fill-rule: evenodd;
      }
    </style>
  </defs>
  <path d="M34.877,31.507 C34.255,31.507 33.752,31.004 33.752,30.382 L33.752,2.816 C33.752,2.507 33.501,2.257 33.195,2.257 L10.687,2.257 C10.378,2.257 10.127,2.507 10.127,2.816 L10.127,28.132 C10.127,28.754 9.624,29.258 9.002,29.258 C8.381,29.258 7.877,28.754 7.877,28.132 L7.877,2.816 C7.877,1.267 9.138,0.007 10.687,0.007 L33.195,0.007 C34.743,0.007 36.003,1.267 36.003,2.816 L36.003,30.382 C36.003,31.004 35.500,31.507 34.877,31.507 ZM30.377,36.008 L5.628,36.008 C2.526,36.008 0.003,33.484 0.003,30.382 L0.003,29.819 C0.003,28.268 1.265,27.006 2.815,27.006 L25.315,27.006 C26.866,27.006 28.128,28.268 28.128,29.819 L28.128,30.382 C28.128,31.004 27.625,31.507 27.003,31.507 C26.381,31.507 25.878,31.004 25.878,30.382 L25.878,29.819 C25.878,29.510 25.625,29.258 25.315,29.258 L2.815,29.258 C2.506,29.258 2.253,29.510 2.253,29.819 L2.253,30.382 C2.253,32.243 3.767,33.757 5.628,33.757 L30.377,33.757 C31.000,33.757 31.502,34.260 31.502,34.882 C31.502,35.504 31.000,36.008 30.377,36.008 ZM16.878,13.507 C16.581,13.507 16.294,13.390 16.082,13.177 L13.832,10.928 C13.393,10.487 13.393,9.777 13.832,9.337 C14.272,8.897 14.983,8.897 15.423,9.337 L16.756,10.669 L19.352,7.207 C19.726,6.712 20.431,6.609 20.926,6.982 C21.424,7.355 21.525,8.060 21.152,8.557 L17.776,13.057 C17.581,13.318 17.282,13.481 16.957,13.503 L16.878,13.507 ZM16.878,22.507 C16.581,22.507 16.294,22.390 16.082,22.177 L13.832,19.928 C13.393,19.487 13.393,18.777 13.832,18.336 C14.272,17.897 14.983,17.897 15.423,18.336 L16.756,19.669 L19.352,16.207 C19.726,15.711 20.431,15.609 20.926,15.982 C21.424,16.354 21.525,17.060 21.152,17.557 L17.776,22.057 C17.581,22.318 17.282,22.481 16.957,22.504 L16.878,22.507 ZM29.253,11.257 L24.753,11.257 C24.131,11.257 23.628,10.753 23.628,10.132 C23.628,9.511 24.131,9.007 24.753,9.007 L29.253,9.007 C29.875,9.007 30.377,9.511 30.377,10.132 C30.377,10.753 29.875,11.257 29.253,11.257 ZM29.253,20.257 L24.753,20.257 C24.131,20.257 23.628,19.754 23.628,19.132 C23.628,18.511 24.131,18.007 24.753,18.007 L29.253,18.007 C29.875,18.007 30.377,18.511 30.377,19.132 C30.377,19.754 29.875,20.257 29.253,20.257 ZM30.940,36.008 C30.318,36.008 29.815,35.504 29.815,34.882 C29.815,34.260 30.318,33.757 30.940,33.757 C32.492,33.757 33.752,32.243 33.752,30.382 C33.752,29.760 34.255,29.258 34.877,29.258 C35.500,29.258 36.003,29.760 36.003,30.382 C36.003,33.484 33.731,36.008 30.940,36.008 ZM30.940,36.008 C28.765,36.008 26.837,34.466 26.139,32.171 C25.965,31.592 25.878,30.991 25.878,30.382 C25.878,29.760 26.381,29.258 27.003,29.258 C27.625,29.258 28.128,29.760 28.128,30.382 C28.128,30.771 28.184,31.154 28.293,31.520 C28.700,32.857 29.763,33.757 30.940,33.757 C31.563,33.757 32.065,34.260 32.065,34.882 C32.065,35.504 31.563,36.008 30.940,36.008 Z" class="cls-1"/>
</svg>
