<svg xmlns="http://www.w3.org/2000/svg" xmlns:xlink="http://www.w3.org/1999/xlink" preserveAspectRatio="xMidYMid" width="120" height="120" viewBox="0 0 120 120">
  <defs>
    <style>
      .cls-1 {
        fill: #00bdca;
        fill-rule: evenodd;
      }
    </style>
  </defs>
  <path d="M117.917,65.331 C115.138,68.897 114.350,72.857 115.554,77.214 C116.757,81.571 115.393,84.864 111.462,87.094 C107.530,89.325 105.286,92.682 104.731,97.168 C104.175,101.654 101.655,104.174 97.168,104.729 C92.683,105.286 89.325,107.528 87.095,111.461 C84.866,115.394 81.572,116.757 77.216,115.553 C72.859,114.351 68.897,115.138 65.333,117.917 C61.768,120.695 58.203,120.695 54.638,117.917 C51.074,115.138 47.113,114.351 42.756,115.553 C38.400,116.757 35.106,115.394 32.876,111.461 C30.647,107.528 27.288,105.286 22.803,104.729 C18.317,104.174 15.797,101.654 15.240,97.168 C14.685,92.682 12.442,89.325 8.509,87.094 C4.579,84.864 3.215,81.571 4.418,77.214 C5.621,72.857 4.833,68.897 2.054,65.331 C-0.725,61.767 -0.725,58.202 2.054,54.639 C4.833,51.073 5.621,47.111 4.418,42.755 C3.215,38.398 4.579,35.105 8.509,32.876 C12.442,30.646 14.685,27.288 15.240,22.801 C15.797,18.316 18.317,15.796 22.803,15.240 C27.288,14.684 30.647,12.440 32.876,8.510 C35.106,4.577 38.400,3.213 42.756,4.417 C47.113,5.619 51.074,4.832 54.638,2.053 C58.203,-0.727 61.768,-0.727 65.333,2.053 C68.897,4.832 72.859,5.619 77.216,4.417 C81.572,3.213 84.866,4.577 87.095,8.510 C89.325,12.440 92.683,14.684 97.168,15.240 C101.655,15.796 104.175,18.316 104.731,22.801 C105.286,27.288 107.530,30.646 111.462,32.876 C115.393,35.105 116.757,38.398 115.554,42.755 C114.350,47.111 115.138,51.073 117.917,54.639 C120.696,58.202 120.696,61.767 117.917,65.331 Z" class="cls-1"/>
</svg>
