<svg xmlns="http://www.w3.org/2000/svg" xmlns:xlink="http://www.w3.org/1999/xlink" preserveAspectRatio="xMidYMid" width="35.781" height="35.91" viewBox="0 0 35.781 35.91">
  <defs>
    <style>
      .cls-1 {
        fill: #fff;
        fill-rule: evenodd;
      }
    </style>
  </defs>
  <path d="M14.449,30.195 C14.152,30.195 13.867,30.078 13.658,29.866 L6.013,22.201 C5.576,21.762 5.576,21.053 6.013,20.614 L22.868,3.712 C25.071,1.503 26.695,0.558 28.660,0.340 L31.469,0.026 C32.647,-0.110 33.811,0.302 34.654,1.147 C35.495,1.990 35.903,3.156 35.771,4.341 L35.460,7.156 C35.241,9.127 34.296,10.756 32.094,12.964 L15.240,29.866 C15.029,30.078 14.745,30.195 14.449,30.195 ZM8.387,21.408 L14.449,27.486 L30.513,11.379 C32.592,9.293 33.105,8.083 33.237,6.908 L33.548,4.093 C33.605,3.587 33.432,3.092 33.073,2.733 C32.713,2.374 32.222,2.200 31.716,2.255 L28.908,2.567 C27.737,2.698 26.531,3.212 24.450,5.299 L8.387,21.408 ZM20.134,35.896 C19.848,35.896 19.562,35.787 19.344,35.568 L13.751,29.960 C13.313,29.521 13.313,28.812 13.751,28.373 C14.188,27.935 14.895,27.935 15.332,28.373 L20.134,33.189 L21.587,31.733 C22.093,31.225 22.372,30.550 22.372,29.832 L22.372,20.192 C22.372,19.572 22.872,19.070 23.491,19.070 C24.109,19.070 24.609,19.572 24.609,20.192 L24.609,29.832 C24.609,31.150 24.098,32.388 23.168,33.319 L20.926,35.568 C20.708,35.787 20.421,35.896 20.134,35.896 ZM10.626,26.362 C10.340,26.362 10.053,26.252 9.836,26.033 C9.398,25.595 9.398,24.886 9.836,24.447 L17.107,17.156 C17.544,16.717 18.251,16.717 18.689,17.156 C19.125,17.594 19.125,18.303 18.689,18.743 L11.417,26.033 C11.199,26.252 10.913,26.362 10.626,26.362 ZM1.118,35.896 C0.808,35.896 0.507,35.768 0.292,35.533 C0.020,35.233 -0.071,34.808 0.055,34.424 L3.364,24.375 C3.558,23.787 4.190,23.465 4.777,23.662 C5.363,23.856 5.682,24.490 5.489,25.079 L2.805,33.229 L10.836,31.347 C11.441,31.208 12.041,31.581 12.180,32.185 C12.321,32.787 11.947,33.390 11.345,33.531 L1.371,35.867 L1.118,35.896 ZM29.819,9.359 C29.532,9.359 29.246,9.250 29.027,9.032 L26.791,6.788 C26.353,6.349 26.353,5.640 26.791,5.202 C27.227,4.763 27.935,4.763 28.372,5.202 L30.609,7.445 C31.047,7.884 31.047,8.593 30.609,9.032 C30.392,9.251 30.105,9.359 29.819,9.359 ZM6.711,22.436 C6.425,22.436 6.138,22.326 5.920,22.107 L0.327,16.498 C-0.110,16.061 -0.110,15.352 0.327,14.913 L2.570,12.664 C3.499,11.733 4.733,11.219 6.048,11.219 L15.660,11.219 C16.278,11.219 16.779,11.722 16.779,12.340 C16.779,12.960 16.278,13.462 15.660,13.462 L6.048,13.462 C5.332,13.462 4.658,13.742 4.152,14.249 L2.700,15.705 L7.502,20.521 C7.939,20.960 7.939,21.669 7.502,22.107 C7.284,22.326 6.998,22.436 6.711,22.436 Z" class="cls-1"/>
</svg>
