<svg xmlns="http://www.w3.org/2000/svg" xmlns:xlink="http://www.w3.org/1999/xlink" preserveAspectRatio="xMidYMid" width="16" height="15" viewBox="0 0 16 15">
  <defs>
    <style>
      .cls-1 {
        fill: #fec909;
        fill-rule: evenodd;
      }
    </style>
  </defs>
  <path d="M5.411,4.047 L7.161,0.482 C7.374,0.056 7.901,-0.123 8.339,0.085 C8.510,0.167 8.648,0.299 8.735,0.464 L10.577,3.989 C10.707,4.239 10.953,4.412 11.238,4.450 L15.253,4.975 C15.735,5.038 16.074,5.471 16.008,5.943 C15.983,6.128 15.895,6.302 15.759,6.435 L12.898,9.228 C12.694,9.427 12.601,9.712 12.654,9.991 L13.383,13.881 C13.471,14.349 13.154,14.797 12.675,14.883 C12.485,14.916 12.288,14.889 12.115,14.803 L8.510,13.003 C8.252,12.875 7.945,12.878 7.689,13.013 L4.127,14.893 C3.700,15.120 3.164,14.965 2.932,14.548 C2.840,14.382 2.807,14.189 2.837,14.002 L3.475,10.097 C3.521,9.817 3.422,9.534 3.212,9.339 L0.281,6.611 C-0.072,6.284 -0.086,5.739 0.250,5.395 C0.384,5.259 0.560,5.169 0.751,5.139 L4.753,4.529 C5.041,4.485 5.287,4.304 5.411,4.047 Z" class="cls-1"/>
</svg>
