<?xml version="1.0" encoding="UTF-8" standalone="no"?>
<svg width="23px" height="20px" viewBox="0 0 23 20" version="1.1" xmlns="http://www.w3.org/2000/svg" xmlns:xlink="http://www.w3.org/1999/xlink">
    <!-- Generator: Sketch 50 (54983) - http://www.bohemiancoding.com/sketch -->
    <title>Shape</title>
    <desc>Created with Sketch.</desc>
    <defs></defs>
    <g id="Page-1" stroke="none" stroke-width="1" fill="none" fill-rule="evenodd">
        <g id="telegram" transform="translate(-1.000000, -1.000000)" fill="#1D354E" fill-rule="nonzero">
            <path d="M1.4,10.59 L6.7,12.59 L8.75,19.18 C8.80807084,19.3831451 8.96559478,19.542734 9.16796637,19.6034454 C9.37033795,19.6641569 9.58969587,19.6176326 9.75,19.48 L12.75,17.07 C13.0657054,16.8282603 13.5042946,16.8282603 13.82,17.07 L19.15,20.93 C19.3214525,21.0679301 19.5531679,21.1046493 19.7588642,21.0264847 C19.9645605,20.9483201 20.113415,20.7669844 20.15,20.55 L24.03,1.75 C24.1144392,1.50834977 24.0416888,1.23964936 23.8468677,1.07360861 C23.6520465,0.907567858 23.3752118,0.87832641 23.15,1 L1.4,9.42 C1.15160915,9.50719815 0.985365528,9.74174816 0.985365528,10.005 C0.985365528,10.2682518 1.15160915,10.5028018 1.4,10.59 Z M8.4,11.51 L18.78,5.14 C18.8600813,5.07924868 18.9742487,5.09491872 19.035,5.175 C19.0957513,5.25508129 19.0800813,5.36924868 19,5.43 L10.45,13.36 C10.1494087,13.6389512 9.95500425,14.0136216 9.9,14.42 L9.61,16.57 C9.57735299,16.6865947 9.47107912,16.7671989 9.35,16.7671989 C9.22892088,16.7671989 9.12264701,16.6865947 9.09,16.57 L7.97,12.68 C7.82660568,12.2327154 8.01383621,11.7459161 8.42,11.51 L8.4,11.51 Z" id="Shape"></path>
        </g>
    </g>
</svg>