<svg xmlns="http://www.w3.org/2000/svg" xmlns:xlink="http://www.w3.org/1999/xlink" preserveAspectRatio="xMidYMid" width="21.62" height="24" viewBox="0 0 21.62 24">
  <defs>
    <style>
      .cls-1 {
        fill: #fff;
        fill-rule: evenodd;
      }
    </style>
  </defs>
  <path d="M20.409,23.999 C19.746,23.999 19.209,23.461 19.209,22.799 L19.209,21.600 C19.209,18.948 17.060,16.799 14.409,16.799 L7.209,16.799 C4.558,16.799 2.409,18.948 2.409,21.600 L2.409,22.799 C2.409,23.461 1.872,23.999 1.209,23.999 C0.546,23.999 0.008,23.461 0.008,22.799 L0.008,21.600 C0.008,18.290 2.253,15.532 5.294,14.689 C3.539,13.150 2.409,10.917 2.409,8.398 C2.409,3.760 6.170,-0.001 10.809,-0.001 C15.448,-0.001 19.209,3.760 19.209,8.398 C19.209,10.917 18.078,13.150 16.324,14.689 C19.364,15.532 21.609,18.290 21.609,21.600 L21.609,22.799 C21.609,23.461 21.071,23.999 20.409,23.999 ZM16.809,8.398 C16.809,5.086 14.122,2.399 10.809,2.399 C7.495,2.399 4.809,5.086 4.809,8.398 C4.809,11.712 7.495,14.399 10.809,14.399 C14.122,14.399 16.809,11.712 16.809,8.398 Z" class="cls-1"/>
</svg>
