<?xml version="1.0" encoding="utf-8"?>
<!-- Generator: Adobe Illustrator 19.2.1, SVG Export Plug-In . SVG Version: 6.00 Build 0)  -->
<svg version="1.1" id="Слой_1" xmlns="http://www.w3.org/2000/svg" xmlns:xlink="http://www.w3.org/1999/xlink" x="0px" y="0px"
	 viewBox="0 0 39 39" style="enable-background:new 0 0 39 39;" xml:space="preserve">
<style type="text/css">
	.st0{fill:#4E3E3E;}
	.st1{fill:#8E7474;}
</style>
<title>rounded</title>
<desc>Created with Sketch.</desc>
<g id="Page-1">
	<g id="rounded" transform="translate(1.000000, 1.000000)">
		<g id="Shape">
			<path class="st0" d="M27.3,13.4h-2.9c-0.2,0-0.5,0.1-0.6,0.3c0,0-1.2,2.1-1.5,2.8c-1,1.9-1.7,1.3-1.7,0.4v-3c0-0.5-0.4-1-1-1
				h-2.2c-0.6,0-1.2,0.2-1.6,0.7c0,0,1.1-0.2,1.1,1.3c0,0.4,0,1.4,0,2.3c0,0.4-0.3,0.6-0.6,0.7c-0.2,0-0.4-0.1-0.5-0.2
				c-0.9-1.2-1.6-2.6-2.2-4c-0.1-0.2-0.3-0.4-0.6-0.4c-0.6,0-1.9,0-2.7,0c-0.2,0-0.5,0.2-0.5,0.4c0,0.1,0,0.1,0,0.2
				c0.8,2.2,4.3,9,8.2,9h1.7c0.4,0,0.7-0.3,0.7-0.6v-1c0-0.4,0.3-0.6,0.6-0.6c0.2,0,0.3,0.1,0.4,0.2l2,1.8c0.2,0.2,0.4,0.3,0.7,0.3
				H27c1.3,0,1.3-0.9,0.6-1.5c-0.5-0.5-2.2-2.3-2.2-2.3c-0.3-0.3-0.3-0.8-0.1-1.2c0.6-0.7,1.5-1.9,1.9-2.4
				C27.6,14.9,28.6,13.4,27.3,13.4z"/>
		</g>
		<g id="Rectangle-path">
			<path class="st1" d="M28.5,38h-20C3.3,38-1,33.7-1,28.5v-20C-1,3.3,3.3-1,8.5-1h20C33.7-1,38,3.3,38,8.5v20
				C38,33.7,33.7,38,28.5,38z M8.5,2C4.9,2,2,4.9,2,8.5v20C2,32.1,4.9,35,8.5,35h20c3.6,0,6.5-2.9,6.5-6.5v-20C35,4.9,32.1,2,28.5,2
				H8.5z"/>
		</g>
	</g>
</g>
</svg>
