<svg xmlns="http://www.w3.org/2000/svg" xmlns:xlink="http://www.w3.org/1999/xlink" preserveAspectRatio="xMidYMid" width="48" height="48" viewBox="0 0 48 48">
  <defs>
    <style>
      .cls-1 {
        fill: #00bdca;
        fill-rule: evenodd;
      }
    </style>
  </defs>
  <path d="M44.247,47.997 L3.750,47.997 C1.681,47.997 -0.002,46.314 -0.002,44.245 L-0.002,3.747 C-0.002,1.680 1.681,-0.003 3.748,-0.003 L44.248,-0.003 C46.316,-0.003 47.998,1.680 47.998,3.747 L47.998,44.245 C47.998,46.314 46.315,47.997 44.247,47.997 ZM44.998,3.747 C44.998,3.342 44.655,2.996 44.248,2.996 L3.748,2.996 C3.342,2.996 2.998,3.342 2.998,3.747 L2.998,16.497 L8.901,16.497 L10.771,13.835 C11.081,13.395 11.596,13.148 12.137,13.203 C12.673,13.254 13.141,13.586 13.363,14.077 L16.318,20.577 L21.082,7.000 C21.304,6.366 21.929,5.957 22.591,6.001 C23.262,6.043 23.822,6.527 23.963,7.182 L27.484,23.615 L31.621,14.101 C31.865,13.540 32.443,13.210 33.028,13.197 C33.636,13.210 34.177,13.585 34.396,14.152 L36.203,18.792 L36.989,17.296 C37.249,16.806 37.761,16.497 38.316,16.497 L44.998,16.497 L44.998,3.747 ZM44.998,19.497 L39.222,19.497 L37.324,23.096 C37.049,23.615 36.500,23.921 35.912,23.894 C35.326,23.861 34.813,23.487 34.600,22.941 L32.922,18.633 L28.374,29.093 C28.134,29.647 27.592,29.997 26.998,29.997 C26.950,29.997 26.900,29.994 26.848,29.989 C26.198,29.925 25.667,29.450 25.531,28.812 L22.149,13.025 L17.913,25.094 C17.710,25.671 17.176,26.069 16.563,26.094 C15.946,26.119 15.385,25.773 15.132,25.216 L11.716,17.705 L10.906,18.858 C10.625,19.259 10.167,19.497 9.681,19.497 L2.998,19.497 L2.998,32.997 L44.998,32.997 L44.998,19.497 ZM44.998,35.997 L2.998,35.997 L2.998,44.245 C2.998,44.658 3.335,44.997 3.750,44.997 L44.247,44.997 C44.661,44.997 44.998,44.658 44.998,44.245 L44.998,35.997 ZM40.499,41.997 C39.669,41.997 38.997,41.325 38.997,40.497 C38.997,39.668 39.669,38.997 40.499,38.997 C41.327,38.997 41.998,39.668 41.998,40.497 C41.998,41.325 41.327,41.997 40.499,41.997 ZM35.998,41.997 C35.170,41.997 34.498,41.325 34.498,40.497 C34.498,39.668 35.170,38.997 35.998,38.997 C36.827,38.997 37.498,39.668 37.498,40.497 C37.498,41.325 36.827,41.997 35.998,41.997 Z" class="cls-1"/>
</svg>
