<svg xmlns="http://www.w3.org/2000/svg" xmlns:xlink="http://www.w3.org/1999/xlink" preserveAspectRatio="xMidYMid" width="48" height="48" viewBox="0 0 48 48">
  <defs>
    <style>
      .cls-1 {
        fill: #00bdca;
        fill-rule: evenodd;
      }
    </style>
  </defs>
  <path d="M46.498,22.498 C47.326,22.498 47.998,23.170 47.998,23.997 C47.998,24.825 47.327,25.496 46.498,25.496 L43.498,25.496 L43.498,32.997 L46.498,32.997 C47.327,32.997 47.998,33.667 47.998,34.497 C47.998,35.326 47.327,35.997 46.498,35.997 L43.498,35.997 L43.498,37.504 C43.498,40.807 40.808,43.497 37.504,43.497 L35.997,43.497 L35.998,46.498 C35.998,47.326 35.328,47.997 34.498,47.997 C33.670,47.997 32.998,47.327 32.998,46.498 L32.997,43.497 L25.499,43.497 L25.500,46.498 C25.500,47.326 24.829,47.997 24.000,47.997 C23.172,47.997 22.499,47.327 22.499,46.498 L22.498,43.497 L14.998,43.497 L14.998,46.498 C14.998,47.326 14.328,47.997 13.498,47.997 C12.670,47.997 11.998,47.327 11.998,46.498 L11.998,43.497 L10.492,43.497 C7.186,43.497 4.498,40.807 4.498,37.504 L4.498,35.996 L1.498,35.997 C0.670,35.997 -0.002,35.326 -0.002,34.497 C-0.002,33.669 0.669,32.997 1.498,32.997 L4.498,32.996 L4.498,25.495 L1.498,25.496 C0.670,25.496 -0.002,24.826 -0.002,23.997 C-0.002,23.168 0.669,22.498 1.498,22.498 L4.498,22.496 L4.498,14.998 L1.498,14.999 C0.670,14.999 -0.002,14.328 -0.002,13.499 C-0.002,12.667 0.669,12.000 1.498,12.000 L4.498,11.998 L4.498,10.491 C4.498,7.185 7.186,4.497 10.492,4.497 L11.999,4.497 L11.998,1.497 C11.998,0.669 12.669,-0.003 13.498,-0.003 C14.326,-0.003 14.998,0.667 14.998,1.497 L14.999,4.497 L22.499,4.497 L22.498,1.497 C22.498,0.669 23.168,-0.003 23.998,-0.003 C24.826,-0.003 25.498,0.667 25.498,1.497 L25.499,4.497 L32.998,4.497 L32.997,1.497 C32.997,0.669 33.667,-0.003 34.497,-0.003 C35.325,-0.003 35.997,0.667 35.997,1.497 L35.997,4.497 L37.504,4.497 C40.808,4.497 43.498,7.185 43.498,10.491 L43.498,12.000 L46.498,12.000 C47.326,12.000 47.998,12.671 47.998,13.499 C47.998,14.328 47.327,14.999 46.498,14.999 L43.498,14.999 L43.498,22.498 L46.498,22.498 ZM40.499,10.491 C40.499,8.841 39.154,7.497 37.504,7.497 L10.492,7.497 C8.842,7.497 7.497,8.841 7.497,10.491 L7.497,37.504 C7.497,39.152 8.842,40.496 10.492,40.496 L37.504,40.496 C39.154,40.496 40.499,39.152 40.499,37.504 L40.499,10.491 ZM29.248,32.997 L18.748,32.997 C16.681,32.997 14.998,31.316 14.998,29.246 L14.998,18.747 C14.998,16.680 16.681,14.997 18.748,14.997 L29.248,14.997 C31.317,14.997 32.998,16.680 32.998,18.747 L32.998,29.246 C32.998,31.316 31.317,32.997 29.248,32.997 ZM29.998,18.747 C29.998,18.341 29.655,17.998 29.248,17.998 L18.748,17.998 C18.341,17.998 17.998,18.341 17.998,18.747 L17.998,29.246 C17.998,29.653 18.341,29.998 18.748,29.998 L29.248,29.998 C29.655,29.998 29.998,29.653 29.998,29.246 L29.998,18.747 Z" class="cls-1"/>
</svg>
