<svg xmlns="http://www.w3.org/2000/svg" xmlns:xlink="http://www.w3.org/1999/xlink" preserveAspectRatio="xMidYMid" width="47.656" height="47.78" viewBox="0 0 47.656 47.78">
  <defs>
    <style>
      .cls-1 {
        fill: #00bdca;
        fill-rule: evenodd;
      }
    </style>
  </defs>
  <path d="M46.139,9.816 C45.696,9.816 45.261,9.620 44.967,9.244 C42.935,6.653 40.465,4.472 37.622,2.762 C36.917,2.337 36.689,1.420 37.112,0.713 C37.534,0.005 38.448,-0.224 39.154,0.201 C42.307,2.097 45.048,4.520 47.307,7.397 C47.815,8.046 47.705,8.983 47.057,9.495 C46.786,9.712 46.460,9.816 46.139,9.816 ZM46.137,25.383 C46.137,30.643 44.308,35.475 41.272,39.302 L47.190,45.240 C47.772,45.822 47.772,46.767 47.190,47.352 C46.899,47.642 46.518,47.788 46.137,47.788 C45.756,47.788 45.375,47.642 45.085,47.352 L39.266,41.512 C35.249,45.389 29.804,47.788 23.804,47.788 C17.803,47.788 12.359,45.389 8.342,41.512 L2.523,47.352 C2.233,47.642 1.852,47.788 1.470,47.788 C1.090,47.788 0.709,47.642 0.418,47.352 C-0.164,46.767 -0.164,45.822 0.418,45.240 L6.335,39.302 C3.299,35.476 1.470,30.643 1.470,25.383 C1.470,13.028 11.490,2.976 23.804,2.976 C36.118,2.976 46.137,13.028 46.137,25.383 ZM23.804,5.964 C13.132,5.964 4.449,14.675 4.449,25.383 C4.449,36.090 13.132,44.800 23.804,44.800 C34.476,44.800 43.160,36.090 43.160,25.383 C43.160,14.675 34.476,5.964 23.804,5.964 ZM25.205,25.821 C25.176,25.912 25.144,25.995 25.100,26.078 C25.056,26.161 25.004,26.235 24.944,26.309 C24.879,26.390 24.810,26.460 24.730,26.525 C24.693,26.556 24.671,26.598 24.631,26.625 L15.697,32.600 C15.442,32.769 15.155,32.851 14.872,32.851 C14.391,32.851 13.919,32.618 13.632,32.187 C13.176,31.499 13.361,30.573 14.044,30.115 L22.315,24.582 L22.315,11.938 C22.315,11.114 22.981,10.445 23.804,10.445 C24.626,10.445 25.293,11.114 25.293,11.938 L25.293,25.383 C25.293,25.432 25.270,25.473 25.265,25.520 C25.256,25.624 25.236,25.721 25.205,25.821 ZM9.984,2.764 C7.143,4.472 4.673,6.653 2.641,9.244 C2.348,9.620 1.910,9.816 1.470,9.816 C1.148,9.816 0.823,9.712 0.551,9.497 C-0.096,8.986 -0.208,8.047 0.300,7.400 C2.558,4.520 5.300,2.099 8.452,0.203 C9.156,-0.222 10.072,0.005 10.495,0.715 C10.918,1.423 10.690,2.339 9.984,2.764 Z" class="cls-1"/>
</svg>
