<svg xmlns="http://www.w3.org/2000/svg" xmlns:xlink="http://www.w3.org/1999/xlink" preserveAspectRatio="xMidYMid" width="48" height="46.5" viewBox="0 0 48 46.5">
  <defs>
    <style>
      .cls-1 {
        fill: #00bdca;
        fill-rule: evenodd;
      }
    </style>
  </defs>
  <path d="M47.998,35.999 C47.998,40.134 44.634,43.499 40.498,43.499 C38.967,43.499 37.543,43.036 36.355,42.246 C32.815,44.987 28.481,46.497 23.999,46.497 C19.518,46.497 15.183,44.987 11.642,42.245 C10.453,43.036 9.029,43.499 7.498,43.499 C3.363,43.499 -0.002,40.134 -0.002,35.999 C-0.002,33.117 1.634,30.613 4.024,29.358 C3.860,28.314 3.748,27.273 3.748,26.247 C3.748,17.912 8.828,10.514 16.501,7.458 C16.522,3.341 19.876,-0.002 23.999,-0.002 C28.123,-0.002 31.478,3.343 31.497,7.461 C39.168,10.519 44.248,17.914 44.248,26.248 C44.248,27.272 44.136,28.313 43.971,29.357 C46.362,30.613 47.998,33.117 47.998,35.999 ZM2.998,35.999 C2.998,38.479 5.017,40.499 7.498,40.499 C9.980,40.499 11.999,38.479 11.999,35.999 C11.999,33.518 9.980,31.499 7.498,31.499 C5.017,31.499 2.998,33.518 2.998,35.999 ZM23.999,2.997 C21.518,2.997 19.499,5.017 19.499,7.497 C19.499,9.977 21.518,11.997 23.999,11.997 C26.479,11.997 28.499,9.977 28.499,7.497 C28.499,5.017 26.479,2.997 23.999,2.997 ZM41.247,26.248 C41.247,19.332 37.144,13.170 30.890,10.451 C29.741,13.122 27.086,14.997 23.999,14.997 C20.910,14.997 18.254,13.120 17.106,10.448 C10.853,13.170 6.748,19.333 6.748,26.247 C6.748,26.997 6.819,27.761 6.923,28.528 C7.114,28.513 7.304,28.498 7.498,28.498 C11.634,28.498 14.999,31.863 14.999,35.999 C14.999,37.516 14.543,38.926 13.766,40.107 C16.727,42.299 20.308,43.496 23.999,43.496 C27.689,43.496 31.270,42.299 34.231,40.108 C33.453,38.927 32.998,37.516 32.998,35.999 C32.998,31.863 36.362,28.498 40.498,28.498 C40.692,28.498 40.882,28.513 41.072,28.528 C41.177,27.761 41.247,26.997 41.247,26.248 ZM41.974,31.768 C41.974,31.768 41.973,31.768 41.973,31.768 C41.972,31.768 41.972,31.768 41.971,31.767 C41.507,31.605 41.016,31.499 40.498,31.499 C38.017,31.499 35.998,33.518 35.998,35.999 C35.998,38.479 38.017,40.499 40.498,40.499 C42.979,40.499 44.997,38.479 44.997,35.999 C44.997,34.038 43.728,32.383 41.974,31.768 Z" class="cls-1"/>
</svg>
