<svg xmlns="http://www.w3.org/2000/svg" xmlns:xlink="http://www.w3.org/1999/xlink" preserveAspectRatio="xMidYMid" width="48" height="48" viewBox="0 0 48 48">
  <defs>
    <style>
      .cls-1 {
        fill: #00bdca;
        fill-rule: evenodd;
      }
    </style>
  </defs>
  <path d="M44.244,47.996 L3.752,47.996 C1.682,47.996 -0.002,46.313 -0.002,44.243 L-0.002,11.253 C-0.002,9.183 1.682,7.497 3.752,7.497 L14.998,7.497 L14.998,3.859 C14.998,1.730 16.597,-0.004 18.563,-0.004 L29.432,-0.004 C31.399,-0.004 32.998,1.730 32.998,3.859 L32.998,7.497 L44.244,7.497 C46.314,7.497 47.998,9.183 47.998,11.253 L47.998,44.243 C47.998,46.313 46.314,47.996 44.244,47.996 ZM29.998,3.859 C29.998,3.373 29.695,2.997 29.432,2.997 L18.563,2.997 C18.297,2.997 17.998,3.368 17.998,3.859 L17.998,7.497 L29.998,7.497 L29.998,3.859 ZM44.998,11.253 C44.998,10.836 44.659,10.498 44.244,10.498 L3.752,10.498 C3.337,10.498 2.998,10.836 2.998,11.253 L2.998,31.497 L44.998,31.497 L44.998,11.253 ZM44.998,34.496 L2.998,34.496 L2.998,44.243 C2.998,44.658 3.337,44.997 3.752,44.997 L44.244,44.997 C44.659,44.997 44.998,44.658 44.998,44.243 L44.998,34.496 ZM25.063,24.433 C25.333,24.719 25.498,25.108 25.498,25.497 C25.498,25.887 25.333,26.277 25.063,26.563 C24.778,26.833 24.388,26.998 23.998,26.998 C23.607,26.998 23.218,26.833 22.933,26.563 C22.662,26.277 22.498,25.887 22.498,25.497 C22.498,25.108 22.662,24.719 22.933,24.433 C23.488,23.877 24.492,23.877 25.063,24.433 Z" class="cls-1"/>
</svg>
