<svg xmlns="http://www.w3.org/2000/svg" xmlns:xlink="http://www.w3.org/1999/xlink" preserveAspectRatio="xMidYMid" width="43" height="44" viewBox="0 0 43 44">
  <defs>
    <style>
      .cls-1 {
        fill: #fff;
        fill-rule: evenodd;
      }
    </style>
  </defs>
  <path d="M42.939,21.997 C42.931,21.932 42.923,21.872 42.894,21.756 C42.886,21.724 42.875,21.686 42.860,21.640 C42.920,21.354 42.959,21.069 42.979,20.781 C43.008,20.304 43.008,19.796 43.008,19.178 C43.008,18.440 43.006,17.842 42.951,17.268 C42.909,16.840 42.833,16.414 42.675,15.990 C42.443,15.344 42.002,14.781 41.516,14.368 C41.026,13.944 40.483,13.600 39.790,13.168 C38.895,12.614 38.298,12.259 37.885,12.024 C37.894,11.950 37.911,11.874 37.918,11.800 C37.963,11.319 37.969,10.815 37.970,10.212 L37.970,10.158 L37.970,10.157 C37.968,9.449 37.972,8.884 37.927,8.336 C37.893,7.927 37.830,7.515 37.681,7.094 C37.460,6.455 37.022,5.894 36.544,5.490 C36.061,5.074 35.524,4.732 34.825,4.291 C34.210,3.907 33.721,3.598 33.216,3.350 C33.053,3.270 32.881,3.199 32.703,3.136 C32.617,3.072 32.487,2.980 32.243,2.817 C31.837,2.545 31.137,2.091 29.920,1.331 C29.310,0.948 28.814,0.647 28.304,0.408 C27.802,0.169 27.238,-0.009 26.628,-0.009 C26.002,-0.009 25.436,0.176 24.935,0.412 C24.426,0.650 23.932,0.947 23.315,1.314 C22.442,1.837 21.876,2.175 21.500,2.399 C21.123,2.175 20.558,1.838 19.684,1.314 C19.067,0.947 18.574,0.650 18.065,0.412 C17.563,0.176 16.998,-0.009 16.373,-0.009 C15.761,-0.009 15.198,0.169 14.695,0.408 C14.185,0.647 13.690,0.948 13.079,1.331 C11.862,2.091 11.163,2.545 10.756,2.817 C10.514,2.980 10.383,3.072 10.296,3.134 C10.118,3.199 9.946,3.270 9.784,3.350 C9.278,3.598 8.789,3.907 8.174,4.291 C7.552,4.682 7.060,4.997 6.618,5.354 C6.290,5.620 5.982,5.920 5.727,6.292 C5.535,6.571 5.385,6.885 5.284,7.198 C5.132,7.672 5.081,8.129 5.053,8.595 C5.029,9.065 5.031,9.560 5.030,10.157 L5.030,10.156 L5.030,10.212 C5.031,10.910 5.039,11.477 5.108,12.029 C4.695,12.264 4.106,12.614 3.210,13.168 C2.594,13.552 2.097,13.868 1.648,14.229 C1.315,14.500 1.002,14.807 0.743,15.182 C0.347,15.749 0.148,16.424 0.072,17.053 C-0.006,17.695 -0.007,18.347 -0.009,19.178 C-0.008,19.911 -0.010,20.487 0.041,21.045 C0.061,21.250 0.089,21.459 0.134,21.667 C0.105,21.759 0.089,21.829 0.078,21.880 C0.056,22.006 0.050,22.086 0.040,22.213 C0.016,22.576 -0.008,23.294 -0.009,25.099 L-0.009,25.257 C-0.008,25.946 -0.010,26.490 0.039,27.023 C0.078,27.420 0.150,27.828 0.317,28.241 C0.442,28.548 0.622,28.845 0.831,29.094 C1.147,29.471 1.500,29.740 1.874,29.992 C2.251,30.244 2.668,30.488 3.175,30.784 C3.798,31.148 4.308,31.440 4.829,31.672 C4.906,31.706 4.985,31.736 5.064,31.767 C5.044,32.296 5.031,33.001 5.030,33.982 L5.030,34.107 C5.031,34.833 5.028,35.400 5.075,35.944 C5.112,36.349 5.177,36.756 5.335,37.172 C5.452,37.481 5.623,37.783 5.826,38.038 C6.133,38.428 6.479,38.706 6.845,38.966 C7.214,39.228 7.619,39.476 8.112,39.783 C9.285,40.511 9.985,40.896 10.448,41.118 C10.680,41.229 10.851,41.300 11.013,41.354 C11.111,41.384 11.210,41.410 11.323,41.428 C11.490,41.576 11.664,41.710 11.844,41.840 C12.228,42.113 12.650,42.370 13.164,42.682 C13.771,43.050 14.252,43.344 14.750,43.581 C15.239,43.814 15.799,43.999 16.414,43.999 C17.028,43.999 17.581,43.817 18.080,43.591 C18.588,43.358 19.091,43.068 19.730,42.701 C20.375,42.327 20.886,42.026 21.346,41.686 C21.399,41.647 21.449,41.599 21.501,41.556 C21.515,41.568 21.528,41.581 21.542,41.592 C22.029,41.976 22.570,42.295 23.270,42.701 C23.908,43.068 24.412,43.358 24.919,43.591 C25.418,43.817 25.971,43.999 26.586,43.999 C27.200,43.999 27.760,43.814 28.250,43.581 C28.748,43.344 29.229,43.050 29.836,42.682 C30.444,42.313 30.926,42.020 31.365,41.686 C31.468,41.607 31.565,41.517 31.666,41.429 C31.783,41.410 31.885,41.385 31.986,41.354 C32.452,41.192 33.119,40.876 34.888,39.783 C35.471,39.420 35.932,39.139 36.356,38.818 C36.671,38.579 36.977,38.308 37.239,37.951 C37.436,37.687 37.595,37.378 37.702,37.068 C37.862,36.599 37.915,36.150 37.943,35.685 C37.970,35.219 37.969,34.718 37.970,34.106 L37.970,33.982 C37.970,33.008 37.956,32.296 37.936,31.766 C38.015,31.736 38.094,31.706 38.170,31.672 C38.692,31.440 39.201,31.148 39.825,30.784 C40.426,30.432 40.899,30.158 41.331,29.849 C41.653,29.620 41.964,29.357 42.237,29.010 C42.440,28.752 42.610,28.449 42.722,28.138 C42.893,27.672 42.949,27.223 42.980,26.772 C43.008,26.318 43.008,25.839 43.008,25.257 L43.008,25.099 C43.008,23.633 42.992,22.879 42.973,22.460 C42.963,22.246 42.954,22.124 42.939,21.997 ZM39.965,25.257 C39.966,25.940 39.961,26.431 39.930,26.721 C39.909,26.942 39.880,27.031 39.871,27.049 L39.850,27.082 C39.825,27.115 39.712,27.227 39.453,27.397 C39.198,27.569 38.815,27.797 38.312,28.090 C37.707,28.445 37.261,28.692 36.963,28.822 C36.658,28.954 36.542,28.966 36.472,28.967 C36.401,28.966 36.288,28.956 35.989,28.825 C35.695,28.697 35.257,28.452 34.663,28.097 C34.078,27.749 33.646,27.496 33.387,27.318 C33.190,27.187 33.102,27.103 33.084,27.080 L33.081,27.077 L33.063,27.017 C33.024,26.873 32.993,26.389 32.997,25.583 C32.997,25.435 32.998,25.274 32.998,25.105 C32.998,24.379 33.028,23.858 33.083,23.524 C33.122,23.273 33.169,23.136 33.211,23.046 C33.275,22.921 33.326,22.840 33.589,22.625 C33.847,22.419 34.301,22.135 34.937,21.754 C36.072,21.071 36.643,20.726 36.932,20.552 C37.075,20.466 37.148,20.421 37.186,20.399 L37.220,20.378 L37.229,20.373 L37.234,20.369 L37.234,20.369 L37.265,20.350 C37.974,19.891 38.183,18.930 37.731,18.206 C37.288,17.496 36.373,17.282 35.668,17.712 L35.666,17.709 C35.665,17.709 35.499,17.810 33.390,19.081 C32.820,19.425 32.341,19.713 31.892,20.043 C31.776,20.130 31.664,20.228 31.552,20.323 C31.167,20.087 30.646,19.760 29.927,19.305 C29.346,18.937 28.907,18.663 28.627,18.460 C28.417,18.308 28.304,18.200 28.252,18.137 C28.180,18.042 28.170,18.051 28.109,17.791 C28.057,17.540 28.024,17.047 28.026,16.299 L28.027,16.155 C28.029,15.433 28.041,14.907 28.079,14.576 C28.106,14.325 28.144,14.195 28.171,14.133 C28.213,14.048 28.211,14.021 28.450,13.818 C28.684,13.626 29.139,13.341 29.813,12.952 C31.026,12.244 31.647,11.884 31.963,11.700 C32.122,11.609 32.204,11.561 32.245,11.538 L32.278,11.517 L32.277,11.514 C32.998,11.109 33.276,10.191 32.893,9.440 C32.504,8.680 31.585,8.385 30.840,8.782 L30.794,8.807 C30.734,8.842 30.430,9.016 28.303,10.256 C27.687,10.616 27.190,10.910 26.737,11.248 C26.398,11.500 26.077,11.787 25.805,12.153 C25.600,12.425 25.433,12.736 25.316,13.055 C25.140,13.534 25.069,14.008 25.029,14.499 C24.991,14.991 24.986,15.515 24.983,16.143 L24.983,16.299 C24.984,17.025 25.000,17.614 25.088,18.188 C25.154,18.615 25.269,19.043 25.471,19.446 C25.773,20.058 26.241,20.520 26.704,20.871 C27.177,21.230 27.684,21.536 28.322,21.942 C29.118,22.447 29.673,22.793 30.081,23.043 C29.984,23.656 29.957,24.306 29.955,25.096 C29.955,25.267 29.954,25.428 29.954,25.583 C29.955,26.096 29.965,26.521 29.996,26.934 C29.616,27.171 29.093,27.496 28.328,27.977 C27.748,28.342 27.273,28.633 26.834,28.960 C26.505,29.205 26.190,29.480 25.911,29.829 C25.483,30.354 25.221,31.029 25.114,31.685 C25.001,32.349 24.984,33.034 24.983,33.913 C24.983,36.816 24.983,36.873 24.983,36.873 C24.983,37.731 25.665,38.425 26.505,38.425 C27.345,38.425 28.027,37.731 28.027,36.873 C28.027,36.873 28.027,36.816 28.027,33.913 C28.026,33.183 28.047,32.663 28.093,32.340 C28.128,32.097 28.168,31.973 28.199,31.906 C28.247,31.813 28.273,31.752 28.538,31.537 C28.795,31.330 29.264,31.034 29.923,30.622 C30.575,30.211 31.047,29.918 31.408,29.692 C31.567,29.812 31.729,29.924 31.897,30.034 C32.254,30.262 32.647,30.491 33.126,30.777 C33.748,31.147 34.258,31.443 34.780,31.675 C34.814,31.690 34.852,31.704 34.889,31.718 C34.909,32.203 34.927,32.928 34.925,33.982 L34.925,34.106 C34.927,34.827 34.923,35.346 34.893,35.665 C34.872,35.904 34.840,36.015 34.827,36.049 L34.799,36.096 C34.773,36.131 34.668,36.240 34.418,36.416 C34.172,36.591 33.797,36.825 33.304,37.131 C33.189,37.203 33.101,37.256 32.997,37.319 C32.997,37.172 32.998,37.034 32.998,36.873 C32.998,33.947 32.998,33.916 32.998,33.913 C32.998,33.055 32.317,32.360 31.476,32.360 C30.636,32.360 29.955,33.055 29.955,33.913 C29.955,33.916 29.955,33.947 29.955,36.873 C29.955,37.603 29.951,38.133 29.922,38.465 C29.901,38.714 29.867,38.839 29.849,38.884 L29.808,38.957 C29.777,39.001 29.668,39.115 29.414,39.294 C29.163,39.473 28.783,39.710 28.279,40.015 C27.682,40.379 27.248,40.634 26.971,40.763 C26.686,40.896 26.612,40.893 26.586,40.894 C26.559,40.894 26.462,40.892 26.156,40.754 C25.857,40.619 25.398,40.362 24.768,39.998 C24.171,39.654 23.746,39.394 23.496,39.207 C23.307,39.067 23.224,38.977 23.194,38.936 L23.153,38.865 C23.135,38.817 23.099,38.684 23.080,38.403 C23.059,38.126 23.054,37.720 23.055,37.188 C23.055,37.089 23.055,36.983 23.055,36.873 C23.055,35.454 23.055,33.232 23.055,31.367 C23.055,29.502 23.055,27.995 23.055,27.991 C23.055,27.134 22.374,26.438 21.533,26.438 C20.693,26.438 20.012,27.134 20.012,27.991 C20.012,27.995 20.012,29.502 20.012,31.367 C20.012,33.232 20.012,35.454 20.012,36.873 C20.012,37.580 20.007,38.097 19.976,38.418 C19.954,38.658 19.919,38.778 19.900,38.825 L19.850,38.912 C19.808,38.967 19.687,39.089 19.419,39.272 C19.154,39.457 18.756,39.694 18.231,39.998 C17.601,40.362 17.143,40.619 16.843,40.754 C16.537,40.892 16.441,40.894 16.414,40.894 C16.388,40.893 16.314,40.896 16.029,40.763 C15.752,40.634 15.317,40.379 14.719,40.014 C14.124,39.654 13.700,39.387 13.459,39.202 C13.276,39.062 13.208,38.980 13.184,38.947 L13.146,38.872 C13.123,38.806 13.085,38.629 13.066,38.294 C13.047,37.962 13.045,37.489 13.045,36.873 C13.045,33.947 13.045,33.916 13.045,33.913 C13.045,33.055 12.363,32.360 11.523,32.360 C10.683,32.360 10.001,33.055 10.001,33.913 C10.001,33.916 10.001,33.947 10.001,36.873 C10.002,37.038 10.004,37.171 10.004,37.322 C9.902,37.259 9.807,37.201 9.695,37.131 C9.112,36.770 8.694,36.506 8.458,36.326 C8.278,36.190 8.211,36.112 8.193,36.088 L8.169,36.038 C8.150,35.989 8.112,35.825 8.095,35.501 C8.076,35.180 8.074,34.716 8.074,34.107 L8.074,33.982 C8.074,32.923 8.091,32.202 8.110,31.718 C8.147,31.704 8.184,31.690 8.220,31.675 C8.741,31.443 9.251,31.147 9.873,30.777 C10.441,30.437 10.888,30.182 11.299,29.905 C11.397,29.837 11.492,29.761 11.587,29.690 C11.950,29.915 12.424,30.211 13.077,30.622 C13.663,30.988 14.098,31.263 14.368,31.465 C14.572,31.617 14.676,31.721 14.727,31.786 C14.795,31.883 14.826,31.911 14.888,32.228 C14.945,32.537 14.975,33.093 14.973,33.913 C14.973,36.816 14.973,36.873 14.973,36.873 C14.973,37.731 15.655,38.425 16.495,38.425 C17.335,38.425 18.016,37.731 18.016,36.873 L18.016,36.873 C18.016,36.873 18.016,36.816 18.016,33.913 C18.016,33.132 18.001,32.504 17.920,31.906 C17.858,31.461 17.753,31.023 17.563,30.603 C17.280,29.964 16.808,29.458 16.329,29.086 C15.845,28.704 15.324,28.388 14.672,27.977 C13.910,27.499 13.390,27.174 13.010,26.938 C13.041,26.525 13.046,26.096 13.046,25.582 C13.046,25.428 13.046,25.267 13.045,25.097 L13.045,25.096 C13.042,24.303 13.018,23.654 12.923,23.041 C13.331,22.790 13.884,22.446 14.677,21.942 C15.245,21.582 15.708,21.299 16.136,20.990 C16.455,20.757 16.761,20.505 17.042,20.179 C17.469,19.693 17.758,19.036 17.873,18.403 C17.997,17.764 18.015,17.118 18.017,16.301 L18.016,16.143 C18.013,15.400 18.006,14.801 17.945,14.227 C17.897,13.799 17.814,13.373 17.643,12.948 C17.389,12.305 16.924,11.763 16.430,11.378 C15.932,10.981 15.389,10.662 14.697,10.256 C13.483,9.549 12.861,9.187 12.541,9.001 C12.382,8.908 12.298,8.860 12.252,8.834 L12.206,8.807 L12.161,8.783 C11.416,8.385 10.497,8.680 10.107,9.440 C9.724,10.190 10.001,11.108 10.722,11.514 L10.721,11.517 C10.747,11.533 11.056,11.711 13.187,12.952 C13.784,13.298 14.212,13.562 14.463,13.752 C14.654,13.893 14.737,13.985 14.774,14.034 L14.836,14.151 C14.867,14.230 14.911,14.413 14.936,14.745 C14.963,15.077 14.971,15.546 14.973,16.154 L14.974,16.301 C14.974,16.965 14.949,17.428 14.906,17.699 C14.874,17.905 14.838,17.992 14.815,18.040 C14.780,18.102 14.745,18.172 14.468,18.388 C14.200,18.595 13.727,18.891 13.072,19.305 C12.348,19.764 11.835,20.084 11.449,20.321 C11.390,20.271 11.334,20.218 11.275,20.171 C10.779,19.782 10.250,19.469 9.610,19.081 C8.475,18.396 7.904,18.052 7.618,17.880 C7.474,17.793 7.402,17.750 7.365,17.729 L7.338,17.711 L7.334,17.709 L7.332,17.713 C6.630,17.283 5.717,17.495 5.271,18.202 C4.816,18.923 5.023,19.883 5.730,20.346 L5.756,20.364 L5.817,20.401 C5.933,20.471 6.373,20.736 8.062,21.754 C8.628,22.093 9.049,22.353 9.317,22.555 C9.520,22.704 9.629,22.812 9.691,22.891 C9.778,23.009 9.826,23.078 9.897,23.408 C9.963,23.732 10.001,24.288 10.001,25.103 L10.001,25.102 C10.002,25.273 10.002,25.434 10.002,25.582 C10.004,26.205 9.992,26.638 9.961,26.867 L9.930,27.042 L9.919,27.076 L9.874,27.121 C9.749,27.251 9.219,27.579 8.336,28.097 C7.743,28.452 7.304,28.697 7.011,28.825 C6.712,28.956 6.598,28.966 6.528,28.967 C6.457,28.966 6.342,28.954 6.036,28.822 C5.739,28.692 5.292,28.445 4.688,28.090 C4.091,27.742 3.663,27.487 3.418,27.309 C3.231,27.176 3.159,27.097 3.143,27.075 L3.125,27.042 C3.112,27.011 3.074,26.871 3.057,26.570 C3.038,26.272 3.034,25.833 3.035,25.257 L3.035,25.099 C3.035,24.983 3.036,24.879 3.036,24.773 C3.131,24.827 3.215,24.876 3.317,24.936 C4.537,25.639 5.157,26.001 5.467,26.181 C5.621,26.273 5.699,26.319 5.730,26.337 L5.742,26.345 L5.743,26.344 C5.929,26.465 6.091,26.513 6.209,26.543 C6.367,26.579 6.471,26.582 6.552,26.583 C6.679,26.583 6.802,26.563 6.920,26.533 L6.921,26.536 L6.921,26.536 C6.935,26.534 6.945,26.525 6.959,26.520 C7.105,26.479 7.244,26.418 7.369,26.336 C7.376,26.331 7.385,26.329 7.392,26.324 C7.476,26.266 7.557,26.202 7.629,26.127 C7.659,26.096 7.697,26.052 7.744,25.994 C7.747,25.988 7.752,25.982 7.756,25.978 C7.766,25.965 7.773,25.957 7.784,25.942 C7.790,25.931 7.799,25.919 7.806,25.909 C7.811,25.902 7.816,25.894 7.820,25.887 C7.856,25.832 7.899,25.759 7.941,25.659 C7.946,25.646 7.954,25.633 7.959,25.618 C7.967,25.600 7.973,25.579 7.980,25.558 C7.984,25.546 7.989,25.532 7.994,25.519 C8.006,25.479 8.019,25.444 8.030,25.399 C8.032,25.392 8.032,25.383 8.032,25.376 C8.058,25.266 8.074,25.150 8.074,25.031 L8.074,25.031 L8.074,25.031 C8.074,25.027 8.072,25.026 8.072,25.020 C8.072,25.013 8.070,25.006 8.070,24.999 C8.067,24.901 8.058,24.811 8.044,24.735 C8.040,24.714 8.034,24.694 8.030,24.674 C8.010,24.586 7.987,24.514 7.962,24.453 C7.956,24.437 7.951,24.423 7.944,24.408 C7.920,24.353 7.896,24.306 7.876,24.266 C7.871,24.257 7.868,24.252 7.862,24.244 C7.856,24.233 7.849,24.223 7.842,24.212 C7.838,24.206 7.834,24.199 7.830,24.193 C7.820,24.177 7.810,24.161 7.799,24.145 C7.749,24.071 7.711,24.023 7.680,23.989 C7.678,23.988 7.678,23.987 7.678,23.986 C7.677,23.986 7.676,23.986 7.674,23.983 C7.659,23.966 7.645,23.951 7.632,23.937 C7.629,23.936 7.627,23.932 7.625,23.929 C7.619,23.925 7.612,23.918 7.608,23.913 C7.510,23.819 7.479,23.801 7.450,23.778 L7.414,23.753 C7.405,23.747 7.397,23.740 7.388,23.735 L7.329,23.696 C7.260,23.652 7.151,23.588 6.789,23.376 C6.429,23.166 5.827,22.817 4.816,22.233 C4.182,21.870 3.729,21.603 3.466,21.416 C3.266,21.275 3.186,21.189 3.164,21.159 L3.136,21.108 C3.117,21.064 3.077,20.907 3.058,20.581 C3.038,20.260 3.034,19.792 3.035,19.178 C3.034,18.455 3.043,17.924 3.077,17.578 C3.102,17.316 3.140,17.170 3.170,17.091 C3.219,16.981 3.226,16.941 3.459,16.730 C3.686,16.530 4.128,16.230 4.788,15.823 C5.665,15.281 6.238,14.942 6.605,14.731 C6.757,14.850 6.910,14.966 7.071,15.076 C7.458,15.339 7.887,15.594 8.400,15.902 C9.585,16.614 10.191,16.977 10.503,17.162 C10.659,17.255 10.741,17.304 10.789,17.332 L10.848,17.366 L10.880,17.383 L10.880,17.383 L10.880,17.383 L10.892,17.390 L10.908,17.397 L10.908,17.397 L10.956,17.421 L10.956,17.421 L10.960,17.424 L10.987,17.435 C10.995,17.439 11.003,17.444 11.012,17.447 L11.064,17.468 L11.117,17.486 L11.143,17.495 L11.145,17.490 C11.176,17.499 11.205,17.510 11.236,17.517 C11.260,17.522 11.282,17.531 11.306,17.534 C11.328,17.538 11.352,17.538 11.375,17.541 C11.403,17.546 11.437,17.556 11.464,17.557 C11.490,17.560 11.507,17.556 11.531,17.557 C11.551,17.557 11.570,17.564 11.591,17.564 C11.610,17.564 11.630,17.557 11.651,17.557 C11.674,17.556 11.697,17.557 11.720,17.555 C11.770,17.550 11.811,17.544 11.853,17.535 C11.876,17.531 11.900,17.528 11.923,17.523 C11.933,17.521 11.950,17.519 11.959,17.517 C11.992,17.507 12.012,17.499 12.038,17.490 C12.055,17.486 12.071,17.481 12.088,17.475 C12.116,17.465 12.147,17.455 12.170,17.445 C12.180,17.441 12.191,17.435 12.201,17.431 C12.225,17.420 12.251,17.409 12.271,17.400 L12.268,17.393 C12.301,17.376 12.333,17.359 12.365,17.340 C12.379,17.331 12.396,17.327 12.412,17.317 C12.415,17.315 12.418,17.310 12.422,17.308 C12.519,17.244 12.607,17.167 12.688,17.082 C12.709,17.060 12.725,17.037 12.745,17.012 C12.800,16.946 12.850,16.875 12.894,16.800 C12.913,16.768 12.930,16.735 12.947,16.702 C12.985,16.626 13.014,16.546 13.038,16.464 C13.048,16.431 13.061,16.400 13.068,16.369 C13.094,16.253 13.112,16.136 13.112,16.010 C13.109,15.843 13.096,15.581 12.912,15.241 C12.792,15.017 12.562,14.798 12.315,14.661 L12.320,14.649 C12.320,14.649 12.225,14.593 11.888,14.393 C11.548,14.190 10.960,13.839 9.945,13.228 C9.337,12.862 8.890,12.591 8.615,12.392 C8.407,12.243 8.305,12.141 8.263,12.090 L8.205,11.994 C8.181,11.941 8.139,11.802 8.110,11.507 C8.084,11.215 8.073,10.783 8.074,10.212 L8.074,10.161 L8.074,10.161 C8.074,9.449 8.076,8.930 8.105,8.598 C8.124,8.348 8.157,8.216 8.179,8.157 C8.217,8.077 8.203,8.061 8.429,7.854 C8.650,7.658 9.095,7.356 9.767,6.937 C10.374,6.556 10.815,6.286 11.098,6.151 C11.389,6.011 11.463,6.014 11.486,6.014 C11.509,6.014 11.604,6.014 11.909,6.158 C12.209,6.297 12.669,6.566 13.299,6.949 C14.447,7.644 15.046,8.018 15.343,8.208 C15.489,8.302 15.564,8.354 15.574,8.359 L15.574,8.358 C15.831,8.558 16.147,8.681 16.495,8.681 L16.656,8.673 C16.720,8.665 16.808,8.653 16.934,8.616 C17.028,8.586 17.145,8.541 17.281,8.458 C17.482,8.341 17.717,8.111 17.850,7.837 C17.985,7.567 18.018,7.305 18.018,7.128 C18.002,6.646 17.862,6.452 17.796,6.320 C17.645,6.083 17.579,6.042 17.527,5.985 C17.436,5.900 17.399,5.877 17.358,5.844 C17.228,5.751 17.087,5.657 16.717,5.424 C16.352,5.194 15.776,4.838 14.854,4.281 C14.729,4.203 14.627,4.146 14.512,4.075 C14.567,4.041 14.613,4.013 14.670,3.977 C15.255,3.610 15.684,3.358 15.962,3.229 C16.247,3.098 16.335,3.097 16.373,3.096 C16.409,3.096 16.504,3.099 16.801,3.236 C17.092,3.371 17.536,3.628 18.142,3.992 C19.046,4.533 19.630,4.881 20.012,5.106 C20.012,7.762 20.012,16.267 20.012,18.972 L20.012,19.015 C20.012,19.020 20.012,19.023 20.012,19.026 C20.012,19.053 20.012,19.084 20.012,19.109 L20.012,19.178 C20.012,19.914 20.008,20.436 19.979,20.739 C19.957,20.967 19.927,21.052 19.923,21.058 L19.921,21.061 C19.907,21.080 19.791,21.192 19.515,21.369 C19.240,21.546 18.827,21.784 18.286,22.103 C17.037,22.840 16.397,23.219 16.067,23.416 C15.901,23.516 15.814,23.567 15.763,23.599 L15.704,23.634 L15.675,23.654 L15.650,23.670 L15.629,23.685 L15.629,23.685 L15.597,23.709 C14.919,24.214 14.771,25.186 15.266,25.878 C15.739,26.539 16.626,26.699 17.297,26.273 L17.300,26.278 L17.315,26.270 C17.413,26.209 17.894,25.921 19.810,24.791 C20.420,24.430 20.892,24.165 21.326,23.870 C21.393,23.823 21.459,23.769 21.525,23.721 C21.980,24.087 22.473,24.395 23.107,24.780 C25.468,26.214 25.724,26.363 25.750,26.380 C26.479,26.804 27.409,26.545 27.827,25.800 C28.242,25.057 27.989,24.109 27.261,23.683 L27.261,23.683 C27.242,23.673 26.870,23.452 24.663,22.112 C24.086,21.764 23.681,21.503 23.453,21.325 C23.281,21.189 23.218,21.112 23.195,21.080 L23.154,20.996 C23.130,20.926 23.092,20.746 23.075,20.414 C23.057,20.084 23.055,19.618 23.055,19.015 L23.055,18.972 C23.055,16.253 23.055,7.675 23.055,5.067 C23.436,4.840 24.000,4.505 24.856,3.992 C25.463,3.628 25.907,3.371 26.199,3.236 C26.496,3.099 26.590,3.096 26.628,3.096 C26.664,3.097 26.752,3.098 27.037,3.229 C27.316,3.358 27.745,3.610 28.329,3.977 C28.389,4.013 28.431,4.041 28.487,4.076 C28.372,4.146 28.271,4.203 28.145,4.281 C26.986,4.982 26.375,5.364 26.037,5.578 C25.869,5.687 25.771,5.751 25.688,5.811 L25.540,5.925 L25.378,6.083 C25.335,6.131 25.281,6.192 25.204,6.320 C25.137,6.452 24.997,6.646 24.981,7.128 C24.975,7.370 25.057,7.764 25.292,8.069 C25.461,8.297 25.674,8.444 25.837,8.523 C26.087,8.644 26.236,8.657 26.331,8.672 C26.427,8.682 26.474,8.681 26.505,8.681 C26.852,8.681 27.169,8.557 27.426,8.358 L27.426,8.359 C27.447,8.344 27.601,8.241 27.947,8.025 C28.294,7.806 28.845,7.467 29.701,6.949 C30.330,6.566 30.790,6.297 31.090,6.158 C31.396,6.014 31.491,6.014 31.513,6.014 C31.536,6.014 31.610,6.011 31.902,6.151 C32.184,6.286 32.625,6.556 33.233,6.937 C33.830,7.309 34.248,7.589 34.488,7.785 C34.670,7.933 34.745,8.022 34.775,8.068 L34.826,8.173 C34.852,8.251 34.889,8.435 34.906,8.767 C34.925,9.096 34.925,9.560 34.925,10.158 L34.925,10.212 C34.927,10.889 34.911,11.369 34.872,11.655 C34.844,11.871 34.809,11.964 34.790,12.007 L34.725,12.104 C34.668,12.171 34.522,12.302 34.244,12.491 C33.966,12.679 33.568,12.920 33.055,13.228 C31.871,13.939 31.269,14.300 30.964,14.480 C30.812,14.571 30.734,14.617 30.699,14.637 L30.680,14.647 L30.679,14.649 L30.688,14.666 C30.320,14.872 30.031,15.213 29.927,15.653 C29.901,15.773 29.906,15.892 29.906,16.010 L29.887,16.010 L29.887,16.010 C29.887,16.014 29.888,16.016 29.888,16.019 C29.888,16.057 29.896,16.089 29.899,16.126 C29.901,16.160 29.904,16.191 29.908,16.226 C29.915,16.266 29.917,16.309 29.926,16.347 C29.930,16.366 29.934,16.381 29.939,16.400 C29.942,16.408 29.942,16.416 29.944,16.426 C29.950,16.449 29.963,16.471 29.970,16.495 C29.971,16.499 29.972,16.501 29.972,16.503 C29.987,16.546 29.996,16.589 30.015,16.630 C30.016,16.632 30.017,16.638 30.017,16.641 C30.021,16.647 30.024,16.651 30.027,16.656 C30.031,16.669 30.039,16.678 30.043,16.689 C30.060,16.725 30.077,16.756 30.094,16.786 C30.098,16.794 30.100,16.802 30.103,16.807 C30.105,16.811 30.107,16.812 30.109,16.815 C30.112,16.821 30.115,16.828 30.118,16.833 C30.126,16.844 30.132,16.854 30.140,16.864 C30.148,16.877 30.156,16.889 30.165,16.899 C30.183,16.927 30.203,16.958 30.221,16.981 C30.250,17.016 30.270,17.034 30.295,17.062 C30.304,17.073 30.313,17.085 30.323,17.097 C30.326,17.100 30.328,17.104 30.331,17.106 C30.338,17.114 30.347,17.119 30.354,17.126 C30.361,17.132 30.370,17.144 30.376,17.150 C30.378,17.151 30.378,17.153 30.380,17.155 C30.426,17.197 30.464,17.227 30.496,17.253 C30.515,17.266 30.523,17.270 30.539,17.282 C30.549,17.289 30.558,17.297 30.570,17.304 C30.575,17.308 30.581,17.310 30.587,17.315 C30.649,17.355 30.696,17.382 30.728,17.400 C30.732,17.401 30.741,17.404 30.745,17.406 C30.762,17.415 30.777,17.420 30.793,17.428 C30.810,17.435 30.826,17.444 30.843,17.449 C30.872,17.461 30.902,17.475 30.926,17.483 C30.927,17.483 30.927,17.483 30.927,17.483 C30.930,17.484 30.933,17.485 30.935,17.485 C30.993,17.504 31.043,17.517 31.085,17.526 C31.088,17.527 31.089,17.527 31.091,17.528 C31.097,17.531 31.101,17.531 31.105,17.531 C31.109,17.532 31.114,17.533 31.119,17.534 C31.122,17.534 31.125,17.535 31.129,17.535 C31.342,17.572 31.398,17.560 31.408,17.564 C31.408,17.564 31.409,17.564 31.409,17.564 L31.409,17.564 L31.409,17.564 L31.409,17.564 C31.560,17.561 31.640,17.547 31.702,17.533 C31.712,17.531 31.722,17.528 31.733,17.526 C31.753,17.522 31.778,17.516 31.795,17.513 C31.924,17.475 31.960,17.456 31.996,17.444 L31.997,17.444 C32.001,17.440 32.005,17.439 32.010,17.437 C32.101,17.396 32.106,17.390 32.127,17.380 L32.254,17.306 C32.439,17.199 32.972,16.881 34.600,15.902 C35.208,15.537 35.696,15.247 36.141,14.927 C36.227,14.866 36.308,14.795 36.391,14.728 C36.759,14.939 37.332,15.278 38.212,15.823 C38.798,16.185 39.213,16.460 39.457,16.660 C39.641,16.811 39.724,16.906 39.766,16.967 C39.819,17.053 39.859,17.110 39.908,17.455 C39.954,17.793 39.966,18.364 39.965,19.178 C39.966,19.906 39.961,20.428 39.929,20.745 C39.906,20.983 39.873,21.088 39.860,21.118 L39.828,21.169 C39.795,21.210 39.671,21.329 39.396,21.509 C39.124,21.689 38.718,21.927 38.185,22.233 C36.962,22.939 36.338,23.302 36.016,23.489 C35.855,23.585 35.770,23.634 35.715,23.668 L35.640,23.714 L35.568,23.764 L35.549,23.778 L35.548,23.778 L35.483,23.830 L35.483,23.831 L35.452,23.856 C35.432,23.875 35.407,23.898 35.376,23.930 C35.374,23.930 35.373,23.931 35.371,23.934 C35.363,23.942 35.352,23.956 35.343,23.965 C35.325,23.984 35.311,23.997 35.288,24.025 L35.272,24.047 C35.264,24.056 35.257,24.066 35.248,24.076 L35.214,24.121 L35.180,24.172 L35.164,24.196 L35.168,24.198 C35.153,24.220 35.141,24.235 35.126,24.259 C35.047,24.404 34.955,24.615 34.931,24.905 C34.927,24.944 34.937,24.990 34.937,25.031 L34.925,25.031 C34.925,25.076 34.939,25.122 34.944,25.168 C34.949,25.235 34.954,25.298 34.970,25.365 C34.985,25.436 35.009,25.502 35.034,25.571 C35.050,25.614 35.056,25.660 35.074,25.701 C35.084,25.721 35.098,25.737 35.108,25.755 C35.115,25.769 35.119,25.788 35.126,25.800 C35.148,25.839 35.172,25.863 35.194,25.896 C35.223,25.941 35.250,25.984 35.281,26.022 C35.314,26.061 35.347,26.095 35.379,26.129 C35.397,26.146 35.416,26.171 35.433,26.187 C35.440,26.194 35.445,26.196 35.452,26.203 C35.545,26.283 35.629,26.341 35.705,26.382 C35.722,26.393 35.736,26.401 35.751,26.409 C35.765,26.416 35.781,26.427 35.793,26.431 C35.813,26.441 35.822,26.441 35.841,26.450 C35.873,26.464 35.912,26.483 35.939,26.494 C35.981,26.508 36.007,26.512 36.040,26.523 C36.074,26.531 36.104,26.543 36.131,26.548 C36.171,26.555 36.202,26.562 36.231,26.566 C36.240,26.568 36.254,26.570 36.263,26.572 L36.274,26.572 C36.279,26.573 36.287,26.574 36.291,26.574 L36.447,26.583 L36.448,26.583 L36.448,26.583 L36.448,26.583 C36.455,26.583 36.462,26.581 36.469,26.581 C36.563,26.579 36.655,26.572 36.745,26.553 C36.931,26.515 37.101,26.441 37.256,26.342 L37.258,26.344 L37.355,26.286 C37.571,26.158 38.162,25.814 39.682,24.936 C39.785,24.876 39.868,24.827 39.964,24.772 C39.964,24.882 39.965,24.981 39.965,25.099 L39.965,25.257 ZM32.260,11.526 L32.260,11.526 L32.260,11.529 L32.260,11.526 ZM10.724,11.516 L10.724,11.516 L10.723,11.519 L10.724,11.516 ZM5.715,26.324 L5.713,26.326 L5.715,26.324 L5.715,26.324 ZM5.502,26.144 L5.502,26.144 L5.497,26.149 L5.502,26.144 ZM5.587,26.228 L5.587,26.228 L5.586,26.231 L5.587,26.228 ZM8.013,25.394 L8.013,25.394 L8.026,25.396 L8.026,25.396 L8.013,25.394 ZM7.983,24.521 L7.983,24.521 L7.989,24.520 L7.983,24.521 ZM7.674,23.990 L7.677,23.987 L7.677,23.987 L7.674,23.990 L7.674,23.990 ZM11.982,14.516 L11.982,14.516 L11.983,14.511 L11.982,14.516 ZM15.516,8.309 L15.513,8.312 L15.516,8.309 L15.516,8.309 ZM15.199,7.933 L15.196,7.933 L15.199,7.933 L15.199,7.933 ZM15.758,5.779 L15.758,5.779 L15.755,5.772 L15.758,5.779 ZM26.646,5.591 L26.647,5.583 L26.646,5.591 L26.646,5.591 ZM26.892,5.633 L26.893,5.629 L26.892,5.633 L26.892,5.633 ZM27.623,6.083 L27.627,6.080 L27.623,6.083 L27.623,6.083 ZM27.542,8.259 L27.542,8.259 L27.544,8.260 L27.542,8.259 ZM31.889,14.541 L31.889,14.541 L31.890,14.538 L31.889,14.541 ZM30.869,14.564 L30.869,14.564 L30.867,14.560 L30.869,14.564 ZM30.767,14.603 L30.767,14.603 L30.767,14.603 L30.767,14.603 ZM30.022,16.639 L30.021,16.641 L30.021,16.641 L30.022,16.639 L30.022,16.639 ZM30.499,17.248 L30.499,17.248 L30.499,17.248 L30.499,17.248 L30.499,17.248 ZM31.129,17.534 L31.129,17.534 L31.129,17.534 L31.129,17.534 L31.129,17.534 ZM37.863,24.469 L37.863,24.469 L37.866,24.468 L37.863,24.469 ZM36.949,23.570 L36.949,23.570 L36.950,23.566 L36.949,23.570 ZM37.272,26.333 L37.274,26.334 L37.272,26.333 L37.272,26.333 ZM37.507,26.143 L37.507,26.143 L37.508,26.144 L37.507,26.143 Z" class="cls-1"/>
</svg>
