<svg xmlns="http://www.w3.org/2000/svg" xmlns:xlink="http://www.w3.org/1999/xlink" preserveAspectRatio="xMidYMid" width="48" height="34.5" viewBox="0 0 48 34.5">
  <defs>
    <style>
      .cls-1 {
        fill: #00bdca;
        fill-rule: evenodd;
      }
    </style>
  </defs>
  <path d="M41.998,11.998 C41.220,11.998 40.482,11.838 39.799,11.567 L34.610,18.706 C35.464,19.743 35.998,21.052 35.998,22.497 C35.998,25.805 33.307,28.498 29.998,28.498 C26.689,28.498 23.998,25.805 23.998,22.497 C23.998,21.689 24.164,20.919 24.455,20.215 L21.722,18.165 C20.695,18.986 19.412,19.497 17.998,19.497 C17.124,19.497 16.298,19.299 15.548,18.961 L10.784,24.917 C11.536,25.919 11.997,27.150 11.997,28.498 C11.997,31.807 9.307,34.496 5.998,34.496 C2.689,34.496 -0.002,31.807 -0.002,28.498 C-0.002,25.187 2.689,22.497 5.998,22.497 C6.873,22.497 7.699,22.695 8.449,23.033 L13.213,17.079 C12.460,16.077 11.997,14.845 11.997,13.497 C11.997,10.188 14.689,7.497 17.998,7.497 C21.307,7.497 23.998,10.188 23.998,13.497 C23.998,14.306 23.833,15.076 23.542,15.780 L26.274,17.829 C27.301,17.008 28.584,16.496 29.998,16.496 C30.775,16.496 31.513,16.656 32.195,16.926 L37.386,9.788 C36.532,8.751 35.998,7.441 35.998,5.996 C35.998,2.689 38.689,-0.004 41.998,-0.004 C45.307,-0.004 47.998,2.689 47.998,5.996 C47.998,9.305 45.307,11.998 41.998,11.998 ZM2.998,28.498 C2.998,30.151 4.344,31.497 5.998,31.497 C7.652,31.497 8.998,30.151 8.998,28.498 C8.998,26.843 7.652,25.497 5.998,25.497 C4.344,25.497 2.998,26.843 2.998,28.498 ZM17.998,10.498 C16.343,10.498 14.998,11.843 14.998,13.497 C14.998,15.153 16.343,16.496 17.998,16.496 C19.653,16.496 20.998,15.153 20.998,13.497 C20.998,11.843 19.653,10.498 17.998,10.498 ZM31.782,20.099 C31.773,20.093 31.762,20.091 31.753,20.084 C31.738,20.073 31.731,20.056 31.717,20.045 C31.229,19.702 30.638,19.497 29.998,19.497 C28.343,19.497 26.998,20.844 26.998,22.497 C26.998,24.152 28.343,25.497 29.998,25.497 C31.653,25.497 32.998,24.152 32.998,22.497 C32.998,21.514 32.516,20.647 31.782,20.099 ZM41.998,2.997 C40.343,2.997 38.998,4.343 38.998,5.996 C38.998,6.982 39.481,7.851 40.217,8.398 C40.225,8.403 40.234,8.404 40.241,8.409 C40.256,8.419 40.262,8.436 40.276,8.446 C40.764,8.791 41.356,8.997 41.998,8.997 C43.653,8.997 44.998,7.652 44.998,5.996 C44.998,4.343 43.653,2.997 41.998,2.997 Z" class="cls-1"/>
</svg>
