<svg id="Слой_1" data-name="Слой 1" xmlns="http://www.w3.org/2000/svg" width="54" height="51" viewBox="0 0 54 51"><title>star-solid</title><path d="M18.23,13.76l5.9-12.12a3,3,0,0,1,4-1.35,3,3,0,0,1,1.34,1.28l6.21,12a3,3,0,0,0,2.23,1.57l13.54,1.78A2.94,2.94,0,0,1,54,20.21a2.91,2.91,0,0,1-.84,1.68l-9.65,9.49a2.9,2.9,0,0,0-.83,2.6L45.12,47.2a2.93,2.93,0,0,1-2.39,3.4,3,3,0,0,1-1.89-.27L28.68,44.21a3,3,0,0,0-2.77,0l-12,6.4a3,3,0,0,1-4-1.17,2.89,2.89,0,0,1-.32-1.86L11.7,34.33a2.9,2.9,0,0,0-.89-2.58L0.93,22.48a2.89,2.89,0,0,1-.1-4.13,3,3,0,0,1,1.69-.87L16,15.4A3,3,0,0,0,18.23,13.76Z" transform="translate(0 0)" fill="#fec909"/></svg>