<svg xmlns="http://www.w3.org/2000/svg" preserveAspectRatio="xMidYMid" width="48" height="48" viewBox="0 0 48 48">
    <defs>
        <style>
            .cls-1{fill:#00bdca;fill-rule:evenodd}
        </style>
    </defs>
    <path d="M44.247 47.997H3.75a3.756 3.756 0 0 1-3.752-3.752V3.747a3.755 3.755 0 0 1 3.75-3.75h40.5a3.755 3.755 0 0 1 3.75 3.75v40.498a3.756 3.756 0 0 1-3.751 3.752zm.751-44.25a.762.762 0 0 0-.75-.751h-40.5a.762.762 0 0 0-.75.751v12.75h5.903l1.87-2.662a1.5 1.5 0 0 1 2.592.242l2.955 6.5L21.082 7a1.5 1.5 0 0 1 2.881.182l3.521 16.433 4.137-9.514c.244-.561.822-.891 1.407-.904a1.498 1.498 0 0 1 1.368.955l1.807 4.64.786-1.496c.26-.49.772-.799 1.327-.799h6.682V3.747zm0 15.75h-5.776l-1.898 3.599a1.511 1.511 0 0 1-1.412.798 1.5 1.5 0 0 1-1.312-.953l-1.678-4.308-4.548 10.46a1.498 1.498 0 0 1-1.526.896 1.494 1.494 0 0 1-1.317-1.177l-3.382-15.787-4.236 12.069a1.497 1.497 0 0 1-1.35 1 1.497 1.497 0 0 1-1.431-.878l-3.416-7.511-.81 1.153a1.497 1.497 0 0 1-1.225.639H2.998v13.5h42v-13.5zm0 16.5h-42v8.248c0 .413.337.752.752.752h40.497a.753.753 0 0 0 .751-.752v-8.248zm-4.499 6a1.501 1.501 0 1 1-.002-3.002 1.501 1.501 0 0 1 .002 3.002zm-4.501 0a1.5 1.5 0 1 1 .001-3.001 1.5 1.5 0 0 1-.001 3.001z" class="cls-1"/>
</svg>
