<svg xmlns="http://www.w3.org/2000/svg" preserveAspectRatio="xMidYMid" width="48" height="48" viewBox="0 0 48 48">
    <defs>
        <style>
            .cls-1{fill:#00bdca;fill-rule:evenodd}
        </style>
    </defs>
    <path d="M46.498 22.498a1.5 1.5 0 0 1 0 2.998h-3v7.501h3a1.5 1.5 0 1 1 0 3h-3v1.507a6.002 6.002 0 0 1-5.994 5.993h-1.507l.001 3.001a1.5 1.5 0 1 1-3 0l-.001-3.001h-7.498l.001 3.001a1.5 1.5 0 1 1-3.001 0l-.001-3.001h-7.5v3.001a1.5 1.5 0 1 1-3 0v-3.001h-1.506a6 6 0 0 1-5.994-5.993v-1.508l-3 .001a1.5 1.5 0 1 1 0-3l3-.001v-7.501l-3 .001a1.5 1.5 0 1 1 0-2.998l3-.002v-7.498l-3 .001a1.5 1.5 0 1 1 0-2.999l3-.002v-1.507a6 6 0 0 1 5.994-5.994h1.507l-.001-3a1.5 1.5 0 1 1 3 0l.001 3h7.5l-.001-3a1.5 1.5 0 1 1 3 0l.001 3h7.499l-.001-3a1.5 1.5 0 1 1 3 0v3h1.507a6 6 0 0 1 5.994 5.994V12h3a1.5 1.5 0 1 1 0 2.999h-3v7.499h3zm-5.999-12.007a3 3 0 0 0-2.995-2.994H10.492a3 3 0 0 0-2.995 2.994v27.013a2.999 2.999 0 0 0 2.995 2.992h27.012a2.999 2.999 0 0 0 2.995-2.992V10.491zM29.248 32.997h-10.5a3.754 3.754 0 0 1-3.75-3.751V18.747a3.755 3.755 0 0 1 3.75-3.75h10.5a3.754 3.754 0 0 1 3.75 3.75v10.499a3.753 3.753 0 0 1-3.75 3.751zm.75-14.25a.76.76 0 0 0-.75-.749h-10.5a.76.76 0 0 0-.75.749v10.499c0 .407.343.752.75.752h10.5c.407 0 .75-.345.75-.752V18.747z" class="cls-1"/>
</svg>
