<svg xmlns="http://www.w3.org/2000/svg" preserveAspectRatio="xMidYMid" width="47.656" height="47.78" viewBox="0 0 47.656 47.78">
    <defs>
        <style>
            .cls-1{fill:#00bdca;fill-rule:evenodd}
        </style>
    </defs>
    <path d="M46.139 9.816c-.443 0-.878-.196-1.172-.572a26.944 26.944 0 0 0-7.345-6.482 1.496 1.496 0 0 1-.51-2.049 1.484 1.484 0 0 1 2.042-.512 29.951 29.951 0 0 1 8.153 7.196 1.497 1.497 0 0 1-1.168 2.419zm-.002 15.567c0 5.26-1.829 10.092-4.865 13.919l5.918 5.938a1.496 1.496 0 0 1 0 2.112 1.488 1.488 0 0 1-2.105 0l-5.819-5.84c-4.017 3.877-9.462 6.276-15.462 6.276-6.001 0-11.445-2.399-15.462-6.276l-5.819 5.84a1.485 1.485 0 0 1-2.105 0 1.496 1.496 0 0 1 0-2.112l5.917-5.938C3.299 35.476 1.47 30.643 1.47 25.383c0-12.355 10.02-22.407 22.334-22.407s22.333 10.052 22.333 22.407zM23.804 5.964c-10.672 0-19.355 8.711-19.355 19.419 0 10.707 8.683 19.417 19.355 19.417S43.16 36.09 43.16 25.383c0-10.708-8.684-19.419-19.356-19.419zm1.401 19.857a1.522 1.522 0 0 1-.105.257 1.419 1.419 0 0 1-.156.231 1.41 1.41 0 0 1-.214.216c-.037.031-.059.073-.099.1L15.697 32.6a1.487 1.487 0 0 1-2.065-.413 1.498 1.498 0 0 1 .412-2.072l8.271-5.533V11.938a1.49 1.49 0 0 1 1.489-1.493c.822 0 1.489.669 1.489 1.493v13.445c0 .049-.023.09-.028.137a1.409 1.409 0 0 1-.06.301zM9.984 2.764a26.925 26.925 0 0 0-7.343 6.48 1.482 1.482 0 0 1-2.09.253A1.497 1.497 0 0 1 .3 7.4c2.258-2.88 5-5.301 8.152-7.197a1.484 1.484 0 0 1 2.043.512 1.495 1.495 0 0 1-.511 2.049z" class="cls-1"/>
</svg>
