<svg xmlns="http://www.w3.org/2000/svg" preserveAspectRatio="xMidYMid" width="48" height="46.5" viewBox="0 0 48 46.5">
    <defs>
        <style>
            .cls-1{fill:#00bdca;fill-rule:evenodd}
        </style>
    </defs>
    <path d="M47.998 35.999c0 4.135-3.364 7.5-7.5 7.5a7.458 7.458 0 0 1-4.143-1.253c-3.54 2.741-7.874 4.251-12.356 4.251-4.481 0-8.816-1.51-12.357-4.252a7.457 7.457 0 0 1-4.144 1.254c-4.135 0-7.5-3.365-7.5-7.5a7.503 7.503 0 0 1 4.026-6.641c-.164-1.044-.276-2.085-.276-3.111 0-8.335 5.08-15.733 12.753-18.789.021-4.117 3.375-7.46 7.498-7.46 4.124 0 7.479 3.345 7.498 7.463a20.204 20.204 0 0 1 12.751 18.787c0 1.024-.112 2.065-.277 3.109a7.505 7.505 0 0 1 4.027 6.642zm-45 0c0 2.48 2.019 4.5 4.5 4.5a4.506 4.506 0 0 0 4.501-4.5c0-2.481-2.019-4.5-4.501-4.5a4.505 4.505 0 0 0-4.5 4.5zM23.999 2.997c-2.481 0-4.5 2.02-4.5 4.5s2.019 4.5 4.5 4.5c2.48 0 4.5-2.02 4.5-4.5s-2.02-4.5-4.5-4.5zm17.248 23.251A17.204 17.204 0 0 0 30.89 10.451c-1.149 2.671-3.804 4.546-6.891 4.546-3.089 0-5.745-1.877-6.893-4.549A17.215 17.215 0 0 0 6.748 26.247c0 .75.071 1.514.175 2.281.191-.015.381-.03.575-.03 4.136 0 7.501 3.365 7.501 7.501a7.449 7.449 0 0 1-1.233 4.108 17.198 17.198 0 0 0 10.233 3.389c3.69 0 7.271-1.197 10.232-3.388a7.444 7.444 0 0 1-1.233-4.109c0-4.136 3.364-7.501 7.5-7.501.194 0 .384.015.574.03.105-.767.175-1.531.175-2.28zm.727 5.52h-.001l-.002-.001a4.451 4.451 0 0 0-1.473-.268 4.505 4.505 0 0 0-4.5 4.5c0 2.48 2.019 4.5 4.5 4.5a4.505 4.505 0 0 0 4.499-4.5c0-1.961-1.269-3.616-3.023-4.231z" class="cls-1"/>
</svg>
