<svg xmlns="http://www.w3.org/2000/svg" preserveAspectRatio="xMidYMid" width="48" height="48" viewBox="0 0 48 48">
    <defs>
        <style>
            .cls-1{fill:#00bdca;fill-rule:evenodd}
        </style>
    </defs>
    <path d="M44.244 47.996H3.752a3.757 3.757 0 0 1-3.754-3.753v-32.99a3.76 3.76 0 0 1 3.754-3.756h11.246V3.859c0-2.129 1.599-3.863 3.565-3.863h10.869c1.967 0 3.566 1.734 3.566 3.863v3.638h11.246a3.76 3.76 0 0 1 3.754 3.756v32.99a3.757 3.757 0 0 1-3.754 3.753zM29.998 3.859c0-.486-.303-.862-.566-.862H18.563c-.266 0-.565.371-.565.862v3.638h12V3.859zm15 7.394a.755.755 0 0 0-.754-.755H3.752a.755.755 0 0 0-.754.755v20.244h42V11.253zm0 23.243h-42v9.747c0 .415.339.754.754.754h40.492a.756.756 0 0 0 .754-.754v-9.747zM25.063 24.433c.27.286.435.675.435 1.064 0 .39-.165.78-.435 1.066-.285.27-.675.435-1.065.435-.391 0-.78-.165-1.065-.435a1.577 1.577 0 0 1-.435-1.066c0-.389.164-.778.435-1.064.555-.556 1.559-.556 2.13 0z" class="cls-1"/>
</svg>
