<svg data-name="Слой 1" xmlns="http://www.w3.org/2000/svg" width="60" height="56.99" viewBox="0 0 60 56.99">
    <title>
        empty-star
    </title>
    <path d="M15.5 57a6 6 0 0 1-5.26-3.07 5.93 5.93 0 0 1-.66-3.79l2.15-13.28-9.86-9.19a5.89 5.89 0 0 1-.21-8.41A6 6 0 0 1 5 17.51l13.5-2.07 5.9-12.11a6 6 0 0 1 10.7-.15l6.22 12 13.5 1.75a6 6 0 0 1 4 2.31 5.84 5.84 0 0 1 1.15 4.36 5.92 5.92 0 0 1-1.74 3.4l-9.64 9.48 2.48 13.14a5.85 5.85 0 0 1-.95 4.42 5.93 5.93 0 0 1-3.86 2.48 6.05 6.05 0 0 1-3.77-.52l-12.16-6.11-12 6.39a6 6 0 0 1-2.83.72zM6.11 23.42l9.76 9.15a5.89 5.89 0 0 1 1.79 5.25L15.53 51l12-6.36a6 6 0 0 1 5.47-.1l12.11 6.09-2.4-13.11a5.89 5.89 0 0 1 1.67-5.29l9.51-9.36-13.4-1.76A6 6 0 0 1 36 17.94L29.78 6l-5.84 12.1a6 6 0 0 1-4.46 3.31zm12.45-8z" fill="#fec909"/>
</svg>
