<svg xmlns="http://www.w3.org/2000/svg" preserveAspectRatio="xMidYMid" width="43" height="44" viewBox="0 0 43 44">
    <defs>
        <style>
            .cls-1{fill:#fff;fill-rule:evenodd}
        </style>
    </defs>
    <path d="M42.939 21.997a1.73 1.73 0 0 0-.079-.357 6.29 6.29 0 0 0 .119-.859c.029-.477.029-.985.029-1.603 0-.738-.002-1.336-.057-1.91a5.01 5.01 0 0 0-.276-1.278c-.232-.646-.673-1.209-1.159-1.622-.49-.424-1.033-.768-1.726-1.2a62.515 62.515 0 0 0-1.905-1.144c.009-.074.026-.15.033-.224.045-.481.051-.985.052-1.588v-.055c-.002-.708.002-1.273-.043-1.821a4.856 4.856 0 0 0-.246-1.242c-.221-.639-.659-1.2-1.137-1.604-.483-.416-1.02-.758-1.719-1.199-.615-.384-1.104-.693-1.609-.941a4.802 4.802 0 0 0-.513-.214 11.28 11.28 0 0 0-.46-.319 91.268 91.268 0 0 0-2.323-1.486c-.61-.383-1.106-.684-1.616-.923-.502-.239-1.066-.417-1.676-.417-.626 0-1.192.185-1.693.421-.509.238-1.003.535-1.62.902L21.5 2.399a544 544 0 0 1-1.816-1.085c-.617-.367-1.11-.664-1.619-.902-.502-.236-1.067-.421-1.692-.421-.612 0-1.175.178-1.678.417-.51.239-1.005.54-1.616.923a93.216 93.216 0 0 0-2.323 1.486c-.242.163-.373.255-.46.317a5.14 5.14 0 0 0-.512.216c-.506.248-.995.557-1.61.941-.622.391-1.114.706-1.556 1.063a4.453 4.453 0 0 0-.891.938 3.524 3.524 0 0 0-.443.906c-.152.474-.203.931-.231 1.397-.024.47-.022.965-.023 1.562v-.001.056c.001.698.009 1.265.078 1.817-.413.235-1.002.585-1.898 1.139-.616.384-1.113.7-1.562 1.061a4.618 4.618 0 0 0-.905.953c-.396.567-.595 1.242-.671 1.871-.078.642-.079 1.294-.081 2.125.001.733-.001 1.309.05 1.867.02.205.048.414.093.622a2.264 2.264 0 0 0-.056.213c-.022.126-.028.206-.038.333-.024.363-.048 1.081-.049 2.886v.158c.001.689-.001 1.233.048 1.766.039.397.111.805.278 1.218.125.307.305.604.514.853.316.377.669.646 1.043.898.377.252.794.496 1.301.792.623.364 1.133.656 1.654.888.077.034.156.064.235.095-.02.529-.033 1.234-.034 2.215v.125c.001.726-.002 1.293.045 1.837.037.405.102.812.26 1.228.117.309.288.611.491.866.307.39.653.668 1.019.928.369.262.774.51 1.267.817 1.173.728 1.873 1.113 2.336 1.335.232.111.403.182.565.236.098.03.197.056.31.074.167.148.341.282.521.412.384.273.806.53 1.32.842.607.368 1.088.662 1.586.899.489.233 1.049.418 1.664.418.614 0 1.167-.182 1.666-.408.508-.233 1.011-.523 1.65-.89.645-.374 1.156-.675 1.616-1.015.053-.039.103-.087.155-.13l.041.036c.487.384 1.028.703 1.728 1.109.638.367 1.142.657 1.649.89.499.226 1.052.408 1.667.408.614 0 1.174-.185 1.664-.418.498-.237.979-.531 1.586-.899.608-.369 1.09-.662 1.529-.996.103-.079.2-.169.301-.257a2.35 2.35 0 0 0 .32-.075c.466-.162 1.133-.478 2.902-1.571.583-.363 1.044-.644 1.468-.965.315-.239.621-.51.883-.867.197-.264.356-.573.463-.883.16-.469.213-.918.241-1.383.027-.466.026-.967.027-1.579v-.124a59.7 59.7 0 0 0-.034-2.216c.079-.03.158-.06.234-.094.522-.232 1.031-.524 1.655-.888.601-.352 1.074-.626 1.506-.935a4.26 4.26 0 0 0 .906-.839c.203-.258.373-.561.485-.872.171-.466.227-.915.258-1.366.028-.454.028-.933.028-1.515v-.158c0-1.466-.016-2.22-.035-2.639a6.204 6.204 0 0 0-.034-.463zm-2.974 3.26c.001.683-.004 1.174-.035 1.464-.021.221-.05.31-.059.328l-.021.033c-.025.033-.138.145-.397.315-.255.172-.638.4-1.141.693-.605.355-1.051.602-1.349.732-.305.132-.421.144-.491.145-.071-.001-.184-.011-.483-.142-.294-.128-.732-.373-1.326-.728-.585-.348-1.017-.601-1.276-.779a1.622 1.622 0 0 1-.303-.238l-.003-.003-.018-.06c-.039-.144-.07-.628-.066-1.434l.001-.478c0-.726.03-1.247.085-1.581a1.74 1.74 0 0 1 .128-.478c.064-.125.115-.206.378-.421.258-.206.712-.49 1.348-.871l1.995-1.202.254-.153.034-.021.009-.005.005-.004.031-.019a1.57 1.57 0 0 0 .466-2.144 1.502 1.502 0 0 0-2.063-.494l-.002-.003-2.276 1.372c-.57.344-1.049.632-1.498.962-.116.087-.228.185-.34.28-.385-.236-.906-.563-1.625-1.018-.581-.368-1.02-.642-1.3-.845a2.13 2.13 0 0 1-.375-.323c-.072-.095-.082-.086-.143-.346-.052-.251-.085-.744-.083-1.492l.001-.144c.002-.722.014-1.248.052-1.579.027-.251.065-.381.092-.443.042-.085.04-.112.279-.315.234-.192.689-.477 1.363-.866 1.213-.708 1.834-1.068 2.15-1.252l.282-.162.033-.021-.001-.003a1.566 1.566 0 0 0 .616-2.074 1.507 1.507 0 0 0-2.053-.658l-.046.025c-.06.035-.364.209-2.491 1.449-.616.36-1.113.654-1.566.992-.339.252-.66.539-.932.905a3.536 3.536 0 0 0-.489.902c-.176.479-.247.953-.287 1.444a23.163 23.163 0 0 0-.046 1.644v.156c.001.726.017 1.315.105 1.889.066.427.181.855.383 1.258.302.612.77 1.074 1.233 1.425.473.359.98.665 1.618 1.071.796.505 1.351.851 1.759 1.101-.097.613-.124 1.263-.126 2.053l-.001.487c.001.513.011.938.042 1.351-.38.237-.903.562-1.668 1.043-.58.365-1.055.656-1.494.983-.329.245-.644.52-.923.869-.428.525-.69 1.2-.797 1.856-.113.664-.13 1.349-.131 2.228v2.96c0 .858.682 1.552 1.522 1.552s1.522-.694 1.522-1.552v-2.96c-.001-.73.02-1.25.066-1.573.035-.243.075-.367.106-.434.048-.093.074-.154.339-.369.257-.207.726-.503 1.385-.915.652-.411 1.124-.704 1.485-.93.159.12.321.232.489.342.357.228.75.457 1.229.743.622.37 1.132.666 1.654.898.034.015.072.029.109.043.02.485.038 1.21.036 2.264v.124c.002.721-.002 1.24-.032 1.559-.021.239-.053.35-.066.384l-.028.047c-.026.035-.131.144-.381.32-.246.175-.621.409-1.114.715-.115.072-.203.125-.307.188l.001-.446v-2.96c0-.858-.681-1.553-1.522-1.553-.84 0-1.521.695-1.521 1.553v2.96c0 .73-.004 1.26-.033 1.592a1.651 1.651 0 0 1-.073.419l-.041.073c-.031.044-.14.158-.394.337-.251.179-.631.416-1.135.721-.597.364-1.031.619-1.308.748-.285.133-.359.13-.385.131-.027 0-.124-.002-.43-.14-.299-.135-.758-.392-1.388-.756-.597-.344-1.022-.604-1.272-.791a1.5 1.5 0 0 1-.302-.271l-.041-.071c-.018-.048-.054-.181-.073-.462a17.63 17.63 0 0 1-.025-1.215v-.315-5.506-3.376c0-.857-.681-1.553-1.522-1.553-.84 0-1.521.696-1.521 1.553v8.882c0 .707-.005 1.224-.036 1.545-.022.24-.057.36-.076.407l-.05.087c-.042.055-.163.177-.431.36-.265.185-.663.422-1.188.726-.63.364-1.088.621-1.388.756-.306.138-.402.14-.429.14-.026-.001-.1.002-.385-.131-.277-.129-.712-.384-1.31-.749-.595-.36-1.019-.627-1.26-.812a1.362 1.362 0 0 1-.275-.255l-.038-.075c-.023-.066-.061-.243-.08-.578a28.38 28.38 0 0 1-.021-1.421v-2.96c0-.858-.682-1.553-1.522-1.553s-1.522.695-1.522 1.553v2.96c.001.165.003.298.003.449l-.309-.191c-.583-.361-1.001-.625-1.237-.805a1.416 1.416 0 0 1-.265-.238l-.024-.05c-.019-.049-.057-.213-.074-.537a27.103 27.103 0 0 1-.021-1.394v-.125c0-1.059.017-1.78.036-2.264a3.59 3.59 0 0 0 .11-.043c.521-.232 1.031-.528 1.653-.898.568-.34 1.015-.595 1.426-.872.098-.068.193-.144.288-.215.363.225.837.521 1.49.932.586.366 1.021.641 1.291.843.204.152.308.256.359.321.068.097.099.125.161.442.057.309.087.865.085 1.685v2.96c0 .858.682 1.552 1.522 1.552s1.521-.694 1.521-1.552v-2.96c0-.781-.015-1.409-.096-2.007a4.702 4.702 0 0 0-.357-1.303c-.283-.639-.755-1.145-1.234-1.517-.484-.382-1.005-.698-1.657-1.109-.762-.478-1.282-.803-1.662-1.039.031-.413.036-.842.036-1.356l-.001-.485v-.001c-.003-.793-.027-1.442-.122-2.055.408-.251.961-.595 1.754-1.099.568-.36 1.031-.643 1.459-.952.319-.233.625-.485.906-.811.427-.486.716-1.143.831-1.776.124-.639.142-1.285.144-2.102l-.001-.158c-.003-.743-.01-1.342-.071-1.916a4.803 4.803 0 0 0-.302-1.279c-.254-.643-.719-1.185-1.213-1.57-.498-.397-1.041-.716-1.733-1.122a3579.067 3579.067 0 0 0-2.445-1.422l-.046-.027-.045-.024a1.507 1.507 0 0 0-2.054.657 1.566 1.566 0 0 0 .615 2.074l-.001.003 2.466 1.435c.597.346 1.025.61 1.276.8.191.141.274.233.311.282l.062.117c.031.079.075.262.1.594.027.332.035.801.037 1.409l.001.147c0 .664-.025 1.127-.068 1.398a1.163 1.163 0 0 1-.091.341c-.035.062-.07.132-.347.348-.268.207-.741.503-1.396.917-.724.459-1.237.779-1.623 1.016-.059-.05-.115-.103-.174-.15-.496-.389-1.025-.702-1.665-1.09a1675.944 1675.944 0 0 0-2.245-1.352l-.027-.018-.004-.002-.002.004a1.502 1.502 0 0 0-2.061.489 1.57 1.57 0 0 0 .459 2.144l.026.018.061.037 2.245 1.353c.566.339.987.599 1.255.801.203.149.312.257.374.336.087.118.135.187.206.517.066.324.104.88.104 1.695v-.001l.001.48c.002.623-.01 1.056-.041 1.285l-.031.175-.011.034-.045.045c-.125.13-.655.458-1.538.976-.593.355-1.032.6-1.325.728-.299.131-.413.141-.483.142-.071-.001-.186-.013-.492-.145-.297-.13-.744-.377-1.348-.732-.597-.348-1.025-.603-1.27-.781a1.37 1.37 0 0 1-.275-.234l-.018-.033c-.013-.031-.051-.171-.068-.472a22.734 22.734 0 0 1-.022-1.313v-.158l.001-.326.281.163c1.22.703 1.84 1.065 2.15 1.245l.263.156.012.008.001-.001a1.481 1.481 0 0 0 1.177.189l.001.003c.014-.002.024-.011.038-.016.146-.041.285-.102.41-.184.007-.005.016-.007.023-.012a1.53 1.53 0 0 0 .364-.346l.028-.036c.006-.011.015-.023.022-.033a1.388 1.388 0 0 0 .135-.25c.005-.013.013-.026.018-.041.008-.018.014-.039.021-.06a.948.948 0 0 1 .014-.039c.012-.04.025-.075.036-.12.002-.007.002-.016.002-.023.026-.11.042-.226.042-.345 0-.004-.002-.005-.002-.011l-.002-.021a1.786 1.786 0 0 0-.026-.264l-.014-.061a1.395 1.395 0 0 0-.068-.221l-.018-.045c-.024-.055-.048-.102-.068-.142a.164.164 0 0 0-.014-.022l-.02-.032-.012-.019a1.365 1.365 0 0 0-.15-.204c-.002-.001-.002-.002-.002-.003-.001 0-.002 0-.004-.003l-.042-.046c-.003-.001-.005-.005-.007-.008a.087.087 0 0 1-.017-.016c-.098-.094-.129-.112-.158-.135l-.036-.025c-.009-.006-.017-.013-.026-.018l-.059-.039a22.703 22.703 0 0 0-.54-.32c-.36-.21-.962-.559-1.973-1.143-.634-.363-1.087-.63-1.35-.817-.2-.141-.28-.227-.302-.257l-.028-.051c-.019-.044-.059-.201-.078-.527-.02-.321-.024-.789-.023-1.403-.001-.723.008-1.254.042-1.6.025-.262.063-.408.093-.487.049-.11.056-.15.289-.361.227-.2.669-.5 1.329-.907.877-.542 1.45-.881 1.817-1.092.152.119.305.235.466.345.387.263.816.518 1.329.826 1.185.712 1.791 1.075 2.103 1.26l.286.17.059.034.032.017.012.007.016.007.048.024.004.003.027.011c.008.004.016.009.025.012l.052.021.053.018.026.009.002-.005c.031.009.06.02.091.027.024.005.046.014.07.017.022.004.046.004.069.007.028.005.062.015.089.016.026.003.043-.001.067 0 .02 0 .039.007.06.007.019 0 .039-.007.06-.007.023-.001.046 0 .069-.002a1.17 1.17 0 0 0 .133-.02c.023-.004.047-.007.07-.012l.036-.006c.033-.01.053-.018.079-.027a.474.474 0 0 0 .05-.015c.028-.01.059-.02.082-.03l.031-.014.07-.031-.003-.007c.033-.017.065-.034.097-.053.014-.009.031-.013.047-.023.003-.002.006-.007.01-.009.097-.064.185-.141.266-.226.021-.022.037-.045.057-.07.055-.066.105-.137.149-.212.019-.032.036-.065.053-.098.038-.076.067-.156.091-.238.01-.033.023-.064.03-.095a1.561 1.561 0 0 0-.156-1.128 1.558 1.558 0 0 0-.597-.58l.005-.012-.432-.256c-.34-.203-.928-.554-1.943-1.165-.608-.366-1.055-.637-1.33-.836a1.934 1.934 0 0 1-.352-.302l-.058-.096c-.024-.053-.066-.192-.095-.487a15.692 15.692 0 0 1-.036-1.295v-.051c0-.712.002-1.231.031-1.563.019-.25.052-.382.074-.441.038-.08.024-.096.25-.303.221-.196.666-.498 1.338-.917.607-.381 1.048-.651 1.331-.786.291-.14.365-.137.388-.137.023 0 .118 0 .423.144.3.139.76.408 1.39.791 1.148.695 1.747 1.069 2.044 1.259.146.094.221.146.231.151v-.001c.257.2.573.323.921.323l.161-.008c.064-.008.152-.02.278-.057a1.538 1.538 0 0 0 .916-.779c.135-.27.168-.532.168-.709-.016-.482-.156-.676-.222-.808-.151-.237-.217-.278-.269-.335-.091-.085-.128-.108-.169-.141-.13-.093-.271-.187-.641-.42-.365-.23-.941-.586-1.863-1.143-.125-.078-.227-.135-.342-.206l.158-.098c.585-.367 1.014-.619 1.292-.748.285-.131.373-.132.411-.133.036 0 .131.003.428.14.291.135.735.392 1.341.756.904.541 1.488.889 1.87 1.114v14.072c0 .736-.004 1.258-.033 1.561-.022.228-.052.313-.056.319l-.002.003c-.014.019-.13.131-.406.308-.275.177-.688.415-1.229.734a615.753 615.753 0 0 0-2.219 1.313c-.166.1-.253.151-.304.183l-.059.035-.029.02-.025.016-.021.015-.032.024a1.574 1.574 0 0 0-.331 2.169c.473.661 1.36.821 2.031.395l.003.005.015-.008c.098-.061.579-.349 2.495-1.479.61-.361 1.082-.626 1.516-.921.067-.047.133-.101.199-.149.455.366.948.674 1.582 1.059 2.361 1.434 2.617 1.583 2.643 1.6a1.508 1.508 0 0 0 2.077-.58 1.572 1.572 0 0 0-.566-2.117c-.019-.01-.391-.231-2.598-1.571-.577-.348-.982-.609-1.21-.787a1.336 1.336 0 0 1-.258-.245l-.041-.084c-.024-.07-.062-.25-.079-.582-.018-.33-.02-.796-.02-1.399v-.043V5.067c.381-.227.945-.562 1.801-1.075.607-.364 1.051-.621 1.343-.756.297-.137.391-.14.429-.14.036.001.124.002.409.133.279.129.708.381 1.292.748.06.036.102.064.158.099-.115.07-.216.127-.342.205-1.159.701-1.77 1.083-2.108 1.297a8.831 8.831 0 0 0-.349.233l-.148.114-.162.158a1.382 1.382 0 0 0-.174.237c-.067.132-.207.326-.223.808a1.59 1.59 0 0 0 .311.941c.169.228.382.375.545.454.25.121.399.134.494.149.096.01.143.009.174.009a1.5 1.5 0 0 0 .921-.323v.001c.021-.015.175-.118.521-.334.347-.219.898-.558 1.754-1.076.629-.383 1.089-.652 1.389-.791.306-.144.401-.144.423-.144.023 0 .097-.003.389.137.282.135.723.405 1.331.786.597.372 1.015.652 1.255.848.182.148.257.237.287.283l.051.105c.026.078.063.262.08.594.019.329.019.793.019 1.391v.054c.002.677-.014 1.157-.053 1.443a1.257 1.257 0 0 1-.082.352l-.065.097c-.057.067-.203.198-.481.387-.278.188-.676.429-1.189.737a442.628 442.628 0 0 1-2.356 1.409l-.019.01-.001.002.009.017a1.537 1.537 0 0 0-.761.987c-.026.12-.021.239-.021.357h-.019l.001.009c0 .038.008.07.011.107.002.034.005.065.009.1.007.04.009.083.018.121l.013.053c.003.008.003.016.005.026.006.023.019.045.026.069l.002.008c.015.043.024.086.043.127a.036.036 0 0 1 .002.011l.01.015c.004.013.012.022.016.033.017.036.034.067.051.097l.009.021.006.008.009.018.022.031a.241.241 0 0 0 .025.035c.018.028.038.059.056.082.029.035.049.053.074.081l.028.035.008.009c.007.008.016.013.023.02.007.006.016.018.022.024l.004.005c.046.042.084.072.116.098.019.013.027.017.043.029.01.007.019.015.031.022l.017.011c.062.04.109.067.141.085a.115.115 0 0 1 .017.006c.017.009.032.014.048.022.017.007.033.016.05.021.029.012.059.026.083.034h.001a1.475 1.475 0 0 0 .158.043l.006.002c.006.003.01.003.014.003a.325.325 0 0 0 .014.003l.01.001c.213.037.269.025.279.029h.001c.151-.003.231-.017.293-.031l.031-.007.062-.013c.129-.038.165-.057.201-.069h.001c.004-.004.008-.005.013-.007.091-.041.096-.047.117-.057l.127-.074c.185-.107.718-.425 2.346-1.404.608-.365 1.096-.655 1.541-.975.086-.061.167-.132.25-.199.368.211.941.55 1.821 1.095.586.362 1.001.637 1.245.837.184.151.267.246.309.307.053.086.093.143.142.488.046.338.058.909.057 1.723.001.728-.004 1.25-.036 1.567a1.435 1.435 0 0 1-.069.373l-.032.051c-.033.041-.157.16-.432.34-.272.18-.678.418-1.211.724-1.223.706-1.847 1.069-2.169 1.256-.161.096-.246.145-.301.179l-.075.046-.072.05-.019.014h-.001l-.065.052v.001l-.031.025c-.02.019-.045.042-.076.074-.002 0-.003.001-.005.004l-.028.031c-.018.019-.032.032-.055.06l-.016.022-.024.029-.034.045-.034.051-.016.024.004.002c-.015.022-.027.037-.042.061a1.594 1.594 0 0 0-.195.646c-.004.039.006.085.006.126h-.012c0 .045.014.091.019.137.005.067.01.13.026.197.015.071.039.137.064.206.016.043.022.089.04.13.01.02.024.036.034.054.007.014.011.033.018.045.022.039.046.063.068.096.029.045.056.088.087.126.033.039.066.073.098.107.018.017.037.042.054.058l.019.016a1.447 1.447 0 0 0 .299.206c.014.007.03.018.042.022.02.01.029.01.048.019.032.014.071.033.098.044.042.014.068.018.101.029.034.008.064.02.091.025.04.007.071.014.1.018l.032.006h.011a.111.111 0 0 0 .017.002l.156.009h.001l.021-.002c.094-.002.186-.009.276-.028.186-.038.356-.112.511-.211l.002.002.097-.058c.216-.128.807-.472 2.327-1.35l.282-.164.001.327v.158zM32.26 11.526v.003-.003zm-21.536-.01l-.001.003.001-.003zM5.715 26.324l-.002.002.002-.002zm-.213-.18l-.005.005.005-.005zm.085.084l-.001.003.001-.003zm2.426-.834l.013.002-.013-.002zm-.03-.873l.006-.001-.006.001zm-.309-.531l.003-.003-.003.003zm4.308-9.474l.001-.005-.001.005zm3.534-6.207l-.003.003.003-.003zm-.317-.376h-.003.003zm.559-2.154l-.003-.007.003.007zm10.888-.188l.001-.008-.001.008zm.246.042l.001-.004-.001.004zm.731.45l.004-.003-.004.003zm-.081 2.176l.002.001-.002-.001zm4.347 6.282l.001-.003-.001.003zm-1.02.023l-.002-.004.002.004zm-.102.039zm-.745 2.036l-.001.002.001-.002zm.477.609zm.63.286zm6.734 6.935l.003-.001-.003.001zm-.914-.899l.001-.004-.001.004zm.323 2.763l.002.001-.002-.001zm.235-.19l.001.001-.001-.001z" class="cls-1"/>
</svg>
