<svg xmlns="http://www.w3.org/2000/svg" preserveAspectRatio="xMidYMid" width="48" height="34.5" viewBox="0 0 48 34.5">
    <defs>
        <style>
            .cls-1{fill:#00bdca;fill-rule:evenodd}
        </style>
    </defs>
    <path d="M41.998 11.998c-.778 0-1.516-.16-2.199-.431l-5.189 7.139c.854 1.037 1.388 2.346 1.388 3.791a6.008 6.008 0 0 1-6 6.001c-3.309 0-6-2.693-6-6.001 0-.808.166-1.578.457-2.282l-2.733-2.05c-1.027.821-2.31 1.332-3.724 1.332-.874 0-1.7-.198-2.45-.536l-4.764 5.956a5.94 5.94 0 0 1 1.213 3.581 6.003 6.003 0 0 1-5.999 5.998c-3.309 0-6-2.689-6-5.998a6.006 6.006 0 0 1 6-6.001c.875 0 1.701.198 2.451.536l4.764-5.954a5.94 5.94 0 0 1-1.216-3.582c0-3.309 2.692-6 6.001-6s6 2.691 6 6c0 .809-.165 1.579-.456 2.283l2.732 2.049c1.027-.821 2.31-1.333 3.724-1.333.777 0 1.515.16 2.197.43l5.191-7.138c-.854-1.037-1.388-2.347-1.388-3.792 0-3.307 2.691-6 6-6s6 2.693 6 6a6.008 6.008 0 0 1-6 6.002zm-39 16.5a3.003 3.003 0 0 0 3 2.999c1.654 0 3-1.346 3-2.999a3.004 3.004 0 0 0-3-3.001c-1.654 0-3 1.346-3 3.001zm15-18c-1.655 0-3 1.345-3 2.999a3 3 0 0 0 6 0 3.002 3.002 0 0 0-3-2.999zm13.784 9.601c-.009-.006-.02-.008-.029-.015-.015-.011-.022-.028-.036-.039a2.979 2.979 0 0 0-1.719-.548c-1.655 0-3 1.347-3 3 0 1.655 1.345 3 3 3s3-1.345 3-3a2.99 2.99 0 0 0-1.216-2.398zM41.998 2.997c-1.655 0-3 1.346-3 2.999 0 .986.483 1.855 1.219 2.402.008.005.017.006.024.011.015.01.021.027.035.037.488.345 1.08.551 1.722.551 1.655 0 3-1.345 3-3.001a3.003 3.003 0 0 0-3-2.999z" class="cls-1"/>
</svg>
