<?xml version="1.0" encoding="UTF-8"?><!DOCTYPE svg PUBLIC "-//W3C//DTD SVG 1.1//EN" "http://www.w3.org/Graphics/SVG/1.1/DTD/svg11.dtd"><svg xmlns="http://www.w3.org/2000/svg"><defs>
        <style>
            .cls-1{fill:#fff;fill-rule:evenodd}
        </style>
    
        <style>
            .cls-1{fill:#fff;fill-rule:evenodd}
        </style>
    
        <style>
            .cls-1{fill:#fff;fill-rule:evenodd}
        </style>
    
        <style>
            .cls-1{fill:#fff;fill-rule:evenodd}
        </style>
    
        <style>
            .cls-1{fill:#fff;fill-rule:evenodd}
        </style>
    
        <style>
            .cls-1{fill:#fff;fill-rule:evenodd}
        </style>
    
        <style>
            .cls-1{fill:#fff;fill-rule:evenodd}
        </style>
    
        <style>
            .cls-1{fill:#00bdca;fill-rule:evenodd}
        </style>
    
        <style>
            .cls-1{fill:#fff;fill-rule:evenodd}
        </style>
    
        <style>
            .cls-1{fill:#fec909;fill-rule:evenodd}
        </style>
    
        <style>
            .cls-1{fill:#7eec4e;fill-rule:evenodd}
        </style>
    
        <style>
            .cls-1{fill:#fff;fill-rule:evenodd}
        </style>
    </defs><symbol id="icon-analysis" viewBox="0 0 36 36">
    
    <path d="M31.502 36.007h-20.25a4.505 4.505 0 0 1-4.499-4.5V9.008H1.128A1.128 1.128 0 0 1 .002 7.882V4.507c0-2.482 2.019-4.5 4.501-4.5h22.5a4.504 4.504 0 0 1 4.499 4.5v22.5h3.375c.623 0 1.125.502 1.125 1.125v3.375c0 2.481-2.017 4.5-4.5 4.5zM6.753 4.507a2.254 2.254 0 0 0-2.25-2.251 2.253 2.253 0 0 0-2.251 2.251v2.25h4.501v-2.25zm22.499 0a2.253 2.253 0 0 0-2.249-2.251H8.376c.388.665.626 1.427.626 2.251v27c0 1.241 1.01 2.25 2.25 2.25a2.252 2.252 0 0 0 2.25-2.25v-3.375c0-.623.504-1.125 1.125-1.125h14.625v-22.5zm4.5 24.75H15.753v2.25a4.45 4.45 0 0 1-.626 2.25h16.375a2.252 2.252 0 0 0 2.25-2.25v-2.25zm-22.5-7.874c0-.623.504-1.126 1.125-1.126h6.751c.622 0 1.124.503 1.124 1.126 0 .621-.502 1.124-1.124 1.124h-6.751a1.125 1.125 0 0 1-1.125-1.124zm0-4.501c0-.622.504-1.125 1.125-1.125h13.5a1.125 1.125 0 1 1 0 2.25h-13.5a1.125 1.125 0 0 1-1.125-1.125zm14.625-3.376h-13.5a1.125 1.125 0 1 1 0-2.249h13.5a1.126 1.126 0 1 1 0 2.249zm0-4.498h-13.5a1.125 1.125 0 1 1 0-2.251h13.5a1.126 1.126 0 1 1 0 2.251z" class="cls-1"/>
</symbol><symbol id="icon-api" viewBox="0 0 36 31.5">
    
    <path d="M33.19 31.507H2.815a2.815 2.815 0 0 1-2.812-2.812V2.82A2.815 2.815 0 0 1 2.815.008H33.19a2.815 2.815 0 0 1 2.813 2.812v25.875a2.815 2.815 0 0 1-2.813 2.812zM2.815 2.256a.563.563 0 0 0-.562.564v25.875c0 .309.251.562.562.562H33.19a.564.564 0 0 0 .562-.562V2.82a.564.564 0 0 0-.562-.564H2.815zm32.062 6.751H1.128a1.125 1.125 0 0 1 0-2.25h33.749a1.125 1.125 0 1 1 0 2.25zM4.503 5.632c-.292 0-.586-.124-.799-.326a1.182 1.182 0 0 1-.326-.799c0-.292.123-.585.326-.798.427-.417 1.181-.417 1.598 0 .202.213.326.506.326.798 0 .292-.124.585-.326.799a1.187 1.187 0 0 1-.799.326zm3.374 0c-.292 0-.585-.124-.798-.326a1.187 1.187 0 0 1-.326-.799c0-.292.124-.585.326-.798.427-.417 1.17-.417 1.598 0 .202.213.325.506.325.798 0 .292-.123.585-.325.799a1.188 1.188 0 0 1-.8.326zm16.876 19.125a1.124 1.124 0 0 1-.796-1.92l3.307-3.307a.567.567 0 0 0 0-.795l-3.307-3.306a1.126 1.126 0 0 1 1.591-1.591l3.307 3.306a2.816 2.816 0 0 1 0 3.977l-3.307 3.307a1.121 1.121 0 0 1-.795.329zm-13.501 0c-.288 0-.575-.11-.795-.329l-3.306-3.307a2.816 2.816 0 0 1 0-3.977l3.307-3.306a1.124 1.124 0 1 1 1.591 1.591l-3.306 3.306a.563.563 0 0 0 0 .795l3.306 3.307a1.124 1.124 0 0 1-.797 1.92zm4.501 1.124a1.124 1.124 0 0 1-1.044-1.541l4.5-11.25c.23-.577.889-.855 1.462-.627.577.232.858.886.628 1.463l-4.5 11.25c-.178.44-.601.705-1.046.705z" class="cls-1"/>
</symbol><symbol id="icon-arrow-right" viewBox="0 0 10 16">
    
    <path d="M9.766 8.506l-7.43 7.269a.763.763 0 0 1-1.061 0L.214 14.736a.724.724 0 0 1 0-1.039l5.837-5.71-5.837-5.71a.725.725 0 0 1 0-1.04L1.275.198a.765.765 0 0 1 1.061 0l7.43 7.27a.724.724 0 0 1 0 1.038z" class="cls-1"/>
</symbol><symbol id="icon-copy" viewBox="0 0 28 28">
    
    <path d="M26 28H10a2 2 0 0 1-2-2v-6H2a2 2 0 0 1-2-2V2a2 2 0 0 1 2-2h16a2 2 0 0 1 2 2v6h6a2 2 0 0 1 2 2v16a2 2 0 0 1-2 2zM17 4a1 1 0 0 0-1-1H4a1 1 0 0 0-1 1v12a1 1 0 0 0 1 1h4v-7a2 2 0 0 1 2-2h7V4zm8 8a1 1 0 0 0-1-1H12a1 1 0 0 0-1 1v12a1 1 0 0 0 1 1h12a1 1 0 0 0 1-1V12z" class="cls-1"/>
</symbol><symbol id="icon-elliott" viewBox="0 0 36 36">
    
    <path d="M34.877 36.007H1.128a1.125 1.125 0 1 1 0-2.25V23.633a3.38 3.38 0 0 1 3.375-3.376 3.38 3.38 0 0 1 3.374 3.376v10.124h2.25v-20.25a3.38 3.38 0 0 1 3.376-3.376 3.38 3.38 0 0 1 3.375 3.376v20.25h2.25V3.382A3.38 3.38 0 0 1 22.503.007a3.38 3.38 0 0 1 3.375 3.375v30.375h2.25V23.633a3.38 3.38 0 0 1 3.374-3.376 3.379 3.379 0 0 1 3.375 3.376v10.124a1.124 1.124 0 1 1 0 2.25zM5.628 23.633c0-.621-.506-1.127-1.125-1.127-.62 0-1.125.506-1.125 1.127v10.124h2.25V23.633zm9-10.126a1.127 1.127 0 0 0-2.251 0v20.25h2.251v-20.25zm9-10.125a1.126 1.126 0 0 0-2.25 0v30.375h2.25V3.382zm8.999 20.251c0-.621-.503-1.127-1.125-1.127-.62 0-1.125.506-1.125 1.127v10.124h2.25V23.633z" class="cls-1"/>
</symbol><symbol id="icon-fb" viewBox="0 0 39 39">
    <style>
        .st0{fill:#8e7474}.st1{fill:#494343}
    </style>
    <title>
        rounded
    </title>
    <g id="Page-1">
        <g id="rounded" transform="translate(1 1)">
            <path class="st0" d="M28.5 38h-20C3.3 38-1 33.7-1 28.5v-20C-1 3.3 3.3-1 8.5-1h20C33.7-1 38 3.3 38 8.5v20c0 5.2-4.3 9.5-9.5 9.5zM8.5 2C4.9 2 2 4.9 2 8.5v20C2 32.1 4.9 35 8.5 35h20c3.6 0 6.5-2.9 6.5-6.5v-20C35 4.9 32.1 2 28.5 2h-20z" id="Rectangle-path"/>
            <path class="st1" d="M27 18.3h-3.3v-3.1c0-.6.5-1.1 1-1.1h3.1l1-3.2h-4.6c-2.3 0-4.1 1.9-4.1 4.2v3.1H18v3.2h2.1V35h3.6V21.5h2.6l.7-3.2z" id="Shape"/>
        </g>
    </g>
</symbol><symbol id="icon-improved" viewBox="0 0 36 36">
    
    <path d="M31.502 36.008c-.257 0-.507-.023-.753-.064a1.11 1.11 0 0 1-.372.064H4.503a4.506 4.506 0 0 1-4.501-4.501V2.817a2.814 2.814 0 0 1 2.81-2.81h23.63a2.814 2.814 0 0 1 2.81 2.81v28.69c0 1.241 1.01 2.25 2.25 2.25a2.252 2.252 0 0 0 2.25-2.25v-18a1.125 1.125 0 1 1 2.25 0v18a4.504 4.504 0 0 1-4.5 4.501zm-4.499-4.501V2.817a.562.562 0 0 0-.561-.56H2.812a.56.56 0 0 0-.56.56v28.69a2.252 2.252 0 0 0 2.251 2.25h23.103a4.474 4.474 0 0 1-.603-2.25zM7.878 9.006h13.5a1.126 1.126 0 0 1 0 2.251h-13.5a1.125 1.125 0 1 1 0-2.251zm0 4.501h13.5a1.125 1.125 0 0 1 0 2.25h-13.5a1.125 1.125 0 1 1 0-2.25zm0 4.5h13.5a1.125 1.125 0 0 1 0 2.25h-13.5a1.124 1.124 0 1 1 0-2.25zm0 4.501h6.749a1.125 1.125 0 1 1 0 2.249H7.878a1.124 1.124 0 1 1 0-2.249zm23.624 8.999a1.125 1.125 0 0 1-1.125-1.126V11.773a1.124 1.124 0 1 1 2.25 0v18.608c0 .622-.502 1.126-1.125 1.126z" class="cls-1"/>
</symbol><symbol id="icon-inst" viewBox="0 0 39 39">
    <style>
        .st0{fill:#856b6b}.st1{fill:#8e7474}
    </style>
    <title>
        rounded
    </title>
    <g id="Page-1">
        <g id="rounded" transform="translate(1 1)">
            <path class="st0" d="M26 13c-1.1 0-2-.9-2-2s.9-2 2-2 2 .9 2 2-.9 2-2 2zm-9 15c-4.4 0-8-3.6-8-8s3.6-8 8-8 8 3.6 8 8-3.6 8-8 8zm0-13c-2.8 0-5 2.2-5 5s2.2 5 5 5 5-2.2 5-5-2.2-5-5-5z" id="Shape"/>
            <path class="st1" d="M28.5 38h-20C3.3 38-1 33.7-1 28.5v-20C-1 3.3 3.3-1 8.5-1h20C33.7-1 38 3.3 38 8.5v20c0 5.2-4.3 9.5-9.5 9.5zM8.5 2C4.9 2 2 4.9 2 8.5v20C2 32.1 4.9 35 8.5 35h20c3.6 0 6.5-2.9 6.5-6.5v-20C35 4.9 32.1 2 28.5 2h-20z" id="Rectangle-path"/>
        </g>
    </g>
</symbol><symbol id="icon-instruments" viewBox="0 0 36 36">
    
    <path d="M34.877 31.507a1.124 1.124 0 0 1-1.125-1.125V2.816a.559.559 0 0 0-.557-.559H10.687a.56.56 0 0 0-.56.559v25.316a1.125 1.125 0 1 1-2.25 0V2.816a2.813 2.813 0 0 1 2.81-2.809h22.508a2.812 2.812 0 0 1 2.808 2.809v27.566c0 .622-.503 1.125-1.126 1.125zm-4.5 4.501H5.628a5.632 5.632 0 0 1-5.625-5.626v-.563a2.816 2.816 0 0 1 2.812-2.813h22.5a2.816 2.816 0 0 1 2.813 2.813v.563a1.124 1.124 0 1 1-2.25 0v-.563a.563.563 0 0 0-.563-.561h-22.5a.563.563 0 0 0-.562.561v.563a3.379 3.379 0 0 0 3.375 3.375h24.749c.623 0 1.125.503 1.125 1.125s-.502 1.126-1.125 1.126zM16.878 13.507c-.297 0-.584-.117-.796-.33l-2.25-2.249a1.126 1.126 0 0 1 1.591-1.591l1.333 1.332 2.596-3.462a1.126 1.126 0 0 1 1.8 1.35l-3.376 4.5a1.117 1.117 0 0 1-.819.446l-.079.004zm0 9c-.297 0-.584-.117-.796-.33l-2.25-2.249a1.126 1.126 0 0 1 1.591-1.592l1.333 1.333 2.596-3.462a1.125 1.125 0 0 1 1.8 1.35l-3.376 4.5a1.12 1.12 0 0 1-.819.447l-.079.003zm12.375-11.25h-4.5a1.125 1.125 0 1 1 0-2.25h4.5a1.124 1.124 0 1 1 0 2.25zm0 9h-4.5a1.124 1.124 0 1 1 0-2.25h4.5a1.124 1.124 0 1 1 0 2.25zm1.687 15.751a1.125 1.125 0 1 1 0-2.251c1.552 0 2.812-1.514 2.812-3.375 0-.622.503-1.124 1.125-1.124.623 0 1.126.502 1.126 1.124 0 3.102-2.272 5.626-5.063 5.626zm0 0c-2.175 0-4.103-1.542-4.801-3.837a6.206 6.206 0 0 1-.261-1.789c0-.622.503-1.124 1.125-1.124s1.125.502 1.125 1.124c0 .389.056.772.165 1.138.407 1.337 1.47 2.237 2.647 2.237.623 0 1.125.503 1.125 1.125s-.502 1.126-1.125 1.126z" class="cls-1"/>
</symbol><symbol id="icon-play" viewBox="0 0 120 120">
    
    <path d="M117.917 65.331c-2.779 3.566-3.567 7.526-2.363 11.883 1.203 4.357-.161 7.65-4.092 9.88-3.932 2.231-6.176 5.588-6.731 10.074-.556 4.486-3.076 7.006-7.563 7.561-4.485.557-7.843 2.799-10.073 6.732-2.229 3.933-5.523 5.296-9.879 4.092-4.357-1.202-8.319-.415-11.883 2.364-3.565 2.778-7.13 2.778-10.695 0-3.564-2.779-7.525-3.566-11.882-2.364-4.356 1.204-7.65-.159-9.88-4.092-2.229-3.933-5.588-6.175-10.073-6.732-4.486-.555-7.006-3.075-7.563-7.561-.555-4.486-2.798-7.843-6.731-10.074-3.93-2.23-5.294-5.523-4.091-9.88 1.203-4.357.415-8.317-2.364-11.883-2.779-3.564-2.779-7.129 0-10.692 2.779-3.566 3.567-7.528 2.364-11.884-1.203-4.357.161-7.65 4.091-9.879 3.933-2.23 6.176-5.588 6.731-10.075.557-4.485 3.077-7.005 7.563-7.561 4.485-.556 7.844-2.8 10.073-6.73 2.23-3.933 5.524-5.297 9.88-4.093 4.357 1.202 8.318.415 11.882-2.364 3.565-2.78 7.13-2.78 10.695 0 3.564 2.779 7.526 3.566 11.883 2.364 4.356-1.204 7.65.16 9.879 4.093 2.23 3.93 5.588 6.174 10.073 6.73 4.487.556 7.007 3.076 7.563 7.561.555 4.487 2.799 7.845 6.731 10.075 3.931 2.229 5.295 5.522 4.092 9.879-1.204 4.356-.416 8.318 2.363 11.884 2.779 3.563 2.779 7.128 0 10.692z" class="cls-1"/>
</symbol><symbol id="icon-rocket" viewBox="0 0 35.781 35.91">
    
    <path d="M14.449 30.195c-.297 0-.582-.117-.791-.329l-7.645-7.665a1.124 1.124 0 0 1 0-1.587L22.868 3.712C25.071 1.503 26.695.558 28.66.34l2.809-.314a3.86 3.86 0 0 1 3.185 1.121 3.894 3.894 0 0 1 1.117 3.194l-.311 2.815c-.219 1.971-1.164 3.6-3.366 5.808L15.24 29.866a1.114 1.114 0 0 1-.791.329zm-6.062-8.787l6.062 6.078 16.064-16.107c2.079-2.086 2.592-3.296 2.724-4.471l.311-2.815a1.65 1.65 0 0 0-.475-1.36 1.654 1.654 0 0 0-1.357-.478l-2.808.312c-1.171.131-2.377.645-4.458 2.732L8.387 21.408zm11.747 14.488a1.11 1.11 0 0 1-.79-.328l-5.593-5.608a1.123 1.123 0 0 1 0-1.587 1.115 1.115 0 0 1 1.581 0l4.802 4.816 1.453-1.456a2.676 2.676 0 0 0 .785-1.901v-9.64a1.12 1.12 0 1 1 2.237 0v9.64a4.9 4.9 0 0 1-1.441 3.487l-2.242 2.249a1.113 1.113 0 0 1-.792.328zm-9.508-9.534a1.121 1.121 0 0 1-.79-1.915l7.271-7.291a1.115 1.115 0 0 1 1.582 0 1.126 1.126 0 0 1 0 1.587l-7.272 7.29a1.112 1.112 0 0 1-.791.329zm-9.508 9.534a1.118 1.118 0 0 1-1.063-1.472l3.309-10.049c.194-.588.826-.91 1.413-.713.586.194.905.828.712 1.417l-2.684 8.15 8.031-1.882a1.12 1.12 0 1 1 .509 2.184l-9.974 2.336-.253.029zM29.819 9.359c-.287 0-.573-.109-.792-.327l-2.236-2.244a1.121 1.121 0 0 1 0-1.586 1.114 1.114 0 0 1 1.581 0l2.237 2.243a1.123 1.123 0 0 1-.79 1.914zM6.711 22.436c-.286 0-.573-.11-.791-.329L.327 16.498a1.122 1.122 0 0 1 0-1.585l2.243-2.249a4.88 4.88 0 0 1 3.478-1.445h9.612a1.12 1.12 0 0 1 0 2.243H6.048c-.716 0-1.39.28-1.896.787L2.7 15.705l4.802 4.816a1.123 1.123 0 0 1-.791 1.915z" class="cls-1"/>
</symbol><symbol id="icon-star" viewBox="0 0 16 15">
    
    <path d="M5.411 4.047L7.161.482A.892.892 0 0 1 8.339.085a.87.87 0 0 1 .396.379l1.842 3.525c.13.25.376.423.661.461l4.015.525a.863.863 0 0 1 .755.968.85.85 0 0 1-.249.492l-2.861 2.793a.845.845 0 0 0-.244.763l.729 3.89a.862.862 0 0 1-.708 1.002.91.91 0 0 1-.56-.08l-3.605-1.8a.904.904 0 0 0-.821.01l-3.562 1.88a.893.893 0 0 1-1.195-.345.85.85 0 0 1-.095-.546l.638-3.905a.846.846 0 0 0-.263-.758L.281 6.611A.845.845 0 0 1 .25 5.395a.9.9 0 0 1 .501-.256l4.002-.61a.876.876 0 0 0 .658-.482z" class="cls-1"/>
</symbol><symbol id="icon-tg" viewBox="0 0 23 20">
    <title>
        Shape
    </title>
    <path d="M.4 9.59l5.3 2 2.05 6.59a.62.62 0 0 0 1 .3l3-2.41a.88.88 0 0 1 1.07 0l5.33 3.86a.62.62 0 0 0 1-.38L23.03.75a.62.62 0 0 0-.88-.75L.4 8.42a.62.62 0 0 0 0 1.17zm7 .92l10.38-6.37a.182.182 0 0 1 .22.29l-8.55 7.93a1.77 1.77 0 0 0-.55 1.06l-.29 2.15a.27.27 0 0 1-.52 0l-1.12-3.89a1 1 0 0 1 .45-1.17H7.4z" fill-rule="nonzero"/>
</symbol><symbol id="icon-up" viewBox="0 0 8 5">
    
    <path d="M8.003 3.573L6.571 5.005 3.999 2.434 1.427 5.005-.006 3.573l3.58-3.58.424.425.425-.425 3.58 3.58z" class="cls-1"/>
</symbol><symbol id="icon-user" viewBox="0 0 21.62 24">
    
    <path d="M20.409 23.999a1.2 1.2 0 0 1-1.2-1.2V21.6a4.8 4.8 0 0 0-4.8-4.801h-7.2a4.8 4.8 0 0 0-4.8 4.801v1.199a1.2 1.2 0 0 1-2.401 0V21.6c0-3.31 2.245-6.068 5.286-6.911-1.755-1.539-2.885-3.772-2.885-6.291a8.4 8.4 0 0 1 16.8 0c0 2.519-1.131 4.752-2.885 6.291 3.04.843 5.285 3.601 5.285 6.911v1.199c0 .662-.538 1.2-1.2 1.2zm-3.6-15.601a6 6 0 1 0-12.001.003 6 6 0 0 0 12.001-.003z" class="cls-1"/>
</symbol><symbol id="icon-vk" viewBox="0 0 39 39">
    <style>
        .st0{fill:#4e3e3e}.st1{fill:#8e7474}
    </style>
    <title>
        rounded
    </title>
    <g id="Page-1">
        <g id="rounded" transform="translate(1 1)">
            <path class="st0" d="M27.3 13.4h-2.9c-.2 0-.5.1-.6.3 0 0-1.2 2.1-1.5 2.8-1 1.9-1.7 1.3-1.7.4v-3c0-.5-.4-1-1-1h-2.2c-.6 0-1.2.2-1.6.7 0 0 1.1-.2 1.1 1.3v2.3c0 .4-.3.6-.6.7-.2 0-.4-.1-.5-.2-.9-1.2-1.6-2.6-2.2-4-.1-.2-.3-.4-.6-.4h-2.7c-.2 0-.5.2-.5.4v.2c.8 2.2 4.3 9 8.2 9h1.7c.4 0 .7-.3.7-.6v-1c0-.4.3-.6.6-.6.2 0 .3.1.4.2l2 1.8c.2.2.4.3.7.3H27c1.3 0 1.3-.9.6-1.5-.5-.5-2.2-2.3-2.2-2.3-.3-.3-.3-.8-.1-1.2.6-.7 1.5-1.9 1.9-2.4.4-.7 1.4-2.2.1-2.2z" id="Shape"/>
            <path class="st1" d="M28.5 38h-20C3.3 38-1 33.7-1 28.5v-20C-1 3.3 3.3-1 8.5-1h20C33.7-1 38 3.3 38 8.5v20c0 5.2-4.3 9.5-9.5 9.5zM8.5 2C4.9 2 2 4.9 2 8.5v20C2 32.1 4.9 35 8.5 35h20c3.6 0 6.5-2.9 6.5-6.5v-20C35 4.9 32.1 2 28.5 2h-20z" id="Rectangle-path"/>
        </g>
    </g>
</symbol><symbol id="icon-yt" viewBox="0 0 39 39">
    <style>
        .st0{fill:#604d4d}.st1{fill:#8e7474}
    </style>
    <title>
        rounded
    </title>
    <g id="Page-1">
        <g id="rounded" transform="translate(1 1)">
            <path class="st0" d="M14 24V14l10 5z" id="Shape"/>
            <path class="st1" d="M28.5 38h-20C3.3 38-1 33.7-1 28.5v-20C-1 3.3 3.3-1 8.5-1h20C33.7-1 38 3.3 38 8.5v20c0 5.2-4.3 9.5-9.5 9.5zM8.5 2C4.9 2 2 4.9 2 8.5v20C2 32.1 4.9 35 8.5 35h20c3.6 0 6.5-2.9 6.5-6.5v-20C35 4.9 32.1 2 28.5 2h-20z" id="Rectangle-path"/>
        </g>
    </g>
</symbol></svg>